<?xml version="1.0" standalone="no"?>
<svg version="1.1" id="Layer_2" xmlns="http://www.w3.org/2000/svg" xmlns:xlink="http://www.w3.org/1999/xlink" x="0px" y="0px" viewBox="0 0 2000 2000" enable-background="new 0 0 2000 2000" xml:space="preserve">
<path id="color_x5F_12" fill="#E6E769" d="M902,1558.3v80.4l-237.9-137.6V1421L902,1558.3z M1064.6,1589.4l0.6,79.9l847.7-489.5
	v-80.2L1064.6,1589.4z M761,961.5c-3.8,0-6.9-1.4-6.9-3.1c0-1.7,3.1-3.1,6.9-3.1s6.9,1.4,6.9,3.1C767.8,960.1,764.7,961.5,761,961.5
	z M566.5,1163.5c-3.8,0-6.9,1.4-6.9,3.1s3.1,3.1,6.9,3.1s6.9-1.4,6.9-3.1C573.3,1164.9,570.3,1163.5,566.5,1163.5z M769.5,968.5
	c-4.3,0-7.8,1.3-7.8,2.8s3.5,2.8,7.8,2.8s7.8-1.3,7.8-2.8S773.8,968.5,769.5,968.5z M1024,1462c0-1.7-3.1-3.1-6.9-3.1
	s-6.9,1.4-6.9,3.1s3.1,3.1,6.9,3.1S1024,1463.7,1024,1462z M770.6,941.8c-6.6,0-11.9,2.5-11.9,5.6s5.3,5.6,11.9,5.6
	s11.9-2.5,11.9-5.6S777.2,941.8,770.6,941.8z M981.6,916.2l-0.3-38.9L746.9,741.9v38.8l142.8,82.4l-8.6-5v193.5l2,1.1l31.5-18.2
	v-157l33.5,19.3L981.6,916.2z M1149.1,780.8v38.4l-43.1,25c7.1,2.6,13,5.7,17.9,9.2c6.6-0.5,14.9-0.4,25.3,0.8l-0.1-326.2
	c-22.6-62.8-106.9-61.7-106.9-61.7v252.8L1149.1,780.8z M934.4,750.1v0.2C934.4,750.3,934.4,750.2,934.4,750.1z M557.9,1176.7
	c-4.3,0-7.8,1.3-7.8,2.8s3.5,2.8,7.8,2.8s7.8-1.3,7.8-2.8S562.3,1176.7,557.9,1176.7z M934.4,750.1v-84.9
	c-5.2-14.4-24.5-14.2-24.5-14.2v85.2C933.4,734.4,934.4,748.2,934.4,750.1z M568.8,1155.6c0-3.1-5.3-5.6-11.9-5.6
	s-11.9,2.5-11.9,5.6s5.3,5.6,11.9,5.6S568.8,1158.7,568.8,1155.6z M1026.8,1445.4c-6.6,0-11.9,2.5-11.9,5.6s5.3,5.6,11.9,5.6
	c6.6,0,11.9-2.5,11.9-5.6S1033.4,1445.4,1026.8,1445.4z M1468.4,923.6l27.5,15.9l0.2-0.1l-27.5-15.9L1468.4,923.6z M1440.8,1067.4
	l27.8,16V974l-27.8,16V1067.4z M1535.6,1003.9c0-1.7-3.1-3.1-6.9-3.1s-6.9,1.4-6.9,3.1s3.1,3.1,6.9,3.1S1535.6,1005.6,1535.6,1003.9
	z M1538.3,987.3c-6.6,0-11.9,2.5-11.9,5.6s5.3,5.6,11.9,5.6s11.9-2.5,11.9-5.6S1544.9,987.3,1538.3,987.3z M1537.2,1014
	c-4.3,0-7.8,1.3-7.8,2.8s3.5,2.8,7.8,2.8s7.8-1.3,7.8-2.8S1541.6,1014,1537.2,1014z M1025.7,1472.1c-4.3,0-7.8,1.3-7.8,2.8
	s3.5,2.8,7.8,2.8c4.3,0,7.8-1.3,7.8-2.8C1033.6,1473.4,1030,1472.1,1025.7,1472.1z M1093.2,1189.9v71l27.8,16v-103L1093.2,1189.9z
	 M1198.9,1200.5c0-1.7-3.1-3.1-6.9-3.1s-6.9,1.4-6.9,3.1s3.1,3.1,6.9,3.1S1198.9,1202.2,1198.9,1200.5z M1200.5,1210.6
	c-4.3,0-7.8,1.3-7.8,2.8s3.5,2.8,7.8,2.8s7.8-1.3,7.8-2.8C1208.4,1211.9,1204.9,1210.6,1200.5,1210.6z M1201.6,1183.9
	c-6.6,0-11.9,2.5-11.9,5.6s5.3,5.6,11.9,5.6s11.9-2.5,11.9-5.6S1208.2,1183.9,1201.6,1183.9z"></path>
<path id="color_x5F_11" fill="#F1EFDA" d="M1346,967L1346,967L1346,967z M1343.7,976.5l-0.1,0.1
	C1343.7,976.6,1343.7,976.5,1343.7,976.5z M1346.4,975.7c-0.1,0-0.3,0-0.4,0C1346.2,975.7,1346.3,975.7,1346.4,975.7z M1346.2,966.9
	C1346.1,966.9,1346.1,966.9,1346.2,966.9C1346.1,966.9,1346.1,966.9,1346.2,966.9z M1345.9,967.1L1345.9,967.1L1345.9,967.1
	L1345.9,967.1z M1343.5,976.7C1343.5,976.8,1343.4,976.8,1343.5,976.7C1343.4,976.8,1343.5,976.8,1343.5,976.7z M1346.3,966.7
	L1346.3,966.7L1346.3,966.7z M1347.5,965.5L1347.5,965.5L1347.5,965.5z M1343.2,977.1C1343.3,977.1,1343.3,977,1343.2,977.1
	C1343.3,977,1343.3,977.1,1343.2,977.1z M1343.1,977.4C1343.1,977.3,1343.1,977.3,1343.1,977.4
	C1343.1,977.3,1343.1,977.3,1343.1,977.4z M1343.1,977.6L1343.1,977.6L1343.1,977.6z M1347.3,965.8L1347.3,965.8L1347.3,965.8z
	 M1256.2,948.1c-0.7,0.1-1.4,0.3-2,0.5C1254.8,948.4,1255.5,948.2,1256.2,948.1z M1347,975.8c-0.1,0-0.3,0-0.4,0
	C1346.8,975.7,1346.9,975.7,1347,975.8z M1336.6,948.2l0.1,0.1C1336.7,948.3,1336.6,948.3,1336.6,948.2z M1297.4,948.8
	c-8.9-1.9-16.6-2.7-23.3-2.6C1280.8,946.2,1288.5,946.9,1297.4,948.8z M1263.6,946.8c-0.9,0.1-1.7,0.2-2.6,0.4
	C1261.9,947,1262.7,946.9,1263.6,946.8z M1342.8,955.3c-0.2-0.2-0.3-0.3-0.4-0.5C1342.5,955,1342.7,955.2,1342.8,955.3z
	 M1340.6,952.7c0.2,0.2,0.3,0.3,0.4,0.5C1340.9,953.1,1340.8,952.9,1340.6,952.7z M1344.6,957.5c-0.2-0.2-0.4-0.5-0.6-0.7
	C1344.2,957,1344.4,957.2,1344.6,957.5z M1346.4,959.6c-0.3-0.4-0.6-0.7-0.9-1.1C1345.8,958.9,1346.1,959.3,1346.4,959.6z
	 M1346.8,960.1c0.4,0.5,0.8,1,1.1,1.4C1347.6,961.1,1347.3,960.7,1346.8,960.1z M1348,961.6c0.1,0.1,0.2,0.3,0.3,0.4
	C1348.2,961.9,1348.1,961.7,1348,961.6z M1338.9,950.8c-0.1-0.1-0.1-0.1-0.2-0.2C1338.7,950.6,1338.8,950.7,1338.9,950.8z
	 M1348.4,962.4c0-0.1-0.1-0.2-0.1-0.3C1348.4,962.3,1348.4,962.3,1348.4,962.4z M1348.5,963.4
	C1348.5,963.4,1348.5,963.3,1348.5,963.4C1348.5,963.3,1348.5,963.4,1348.5,963.4z M1348.5,963L1348.5,963L1348.5,963L1348.5,963z
	 M1345.5,975.8c0.1,0,0.2,0,0.3,0C1345.7,975.8,1345.6,975.8,1345.5,975.8z M1348.4,963.8L1348.4,963.8L1348.4,963.8z M1344.1,976.3
	c-0.1,0-0.1,0.1-0.2,0.1C1344,976.3,1344,976.3,1344.1,976.3z M1369.4,880.8c-0.4-0.3-0.8-0.6-1.2-0.9
	C1368.6,880.2,1369,880.5,1369.4,880.8z M1367.8,879.5c-0.5-0.4-1-0.9-1.6-1.4C1366.8,878.7,1367.3,879.1,1367.8,879.5z M1352,858
	c-0.3-0.7-0.5-1.5-0.7-2.3C1351.5,856.5,1351.7,857.3,1352,858z M1364.7,876.7c0.4,0.5,0.9,0.9,1.3,1.3
	C1365.6,877.6,1365.2,877.1,1364.7,876.7z M1355.2,863.3c0,0-1.9-2.2-3.2-5.3C1353.2,861.1,1355.2,863.3,1355.2,863.3
	c0.4,0.8,0.9,1.6,1.3,2.4C1356.1,864.9,1355.6,864.1,1355.2,863.3z M1347.7,975.8c-0.2,0-0.3,0-0.4,0
	C1347.4,975.8,1347.6,975.8,1347.7,975.8z M1343.1,998.4L1343.1,998.4L1343.1,998.4L1343.1,998.4z M1345.3,975.8
	c-0.1,0-0.2,0-0.3,0.1C1345.1,975.9,1345.2,975.9,1345.3,975.8z M1359.7,985.3c0.1-0.1,0.1-0.1,0.1-0.1S1359.8,985.3,1359.7,985.3z
	 M1345.9,986.1c0-0.1,0.1-0.1,0.1-0.2C1345.9,986,1345.9,986.1,1345.9,986.1z M1359.4,985.6L1359.4,985.6L1359.4,985.6z
	 M1348.4,982.3c0.1,0,0.1,0,0.2,0.1C1348.6,982.3,1348.5,982.3,1348.4,982.3L1348.4,982.3z M1347.2,984.1c-0.1,0.1-0.2,0.2-0.2,0.4
	C1347,984.4,1347.1,984.2,1347.2,984.1z M1344.2,976.2c0.1,0,0.1-0.1,0.2-0.1C1344.4,976.1,1344.3,976.2,1344.2,976.2z
	 M1344.9,975.9c-0.1,0-0.2,0-0.2,0.1C1344.7,976,1344.8,976,1344.9,975.9z M1347.9,975.8c0.2,0,0.3,0.1,0.5,0.1
	C1348.3,975.9,1348.1,975.9,1347.9,975.8z M1244,951.3c0.6-0.2,1.2-0.4,1.8-0.5C1245.2,951,1244.6,951.2,1244,951.3z M1355.1,997.4
	c0,0-0.1,0-0.1,0.1L1355.1,997.4z M1356.6,996.5c-0.1,0-0.1,0.1-0.2,0.1C1356.5,996.6,1356.6,996.5,1356.6,996.5z M1351,853.3
	c0,0.6,0.1,1.1,0.1,1.7C1351.1,854.4,1351,853.8,1351,853.3z M1354.4,997.8l-0.1,0.1C1354.4,997.9,1354.4,997.8,1354.4,997.8z
	 M1356.2,996.8L1356.2,996.8L1356.2,996.8z M1232,953.2L1232,953.2L1232,953.2L1232,953.2z M1356.9,996.4c0.1-0.1,0.2-0.1,0.3-0.2
	C1357.1,996.2,1357,996.3,1356.9,996.4z M1185.1,971c0,0-0.1,0-0.1,0.1C1185.1,971.1,1185.1,971.1,1185.1,971z M1343,978L1343,978
	L1343,978z M1357.3,996.1c0.1,0,0.1-0.1,0.2-0.1C1357.4,996,1357.4,996.1,1357.3,996.1z M1335.5,1006.5v-0.1V1006.5z M1355.8,997
	c-0.1,0-0.1,0.1-0.2,0.1C1355.7,997.1,1355.7,997,1355.8,997z M1396.3,889.1C1396.3,889.1,1396.2,889.1,1396.3,889.1L1396.3,889.1z
	 M1395.2,907.1c-0.5,0.8-0.9,1.6-1.4,2.5C1394.3,908.7,1394.7,907.9,1395.2,907.1z M1357.1,996.3
	C1357,996.3,1357,996.3,1357.1,996.3C1357,996.3,1357,996.3,1357.1,996.3z M1395.9,889.1c0,0-0.1,0-0.2,0
	C1395.8,889.1,1395.8,889.1,1395.9,889.1z M1395.5,889.1c-0.1,0-0.1,0-0.2,0C1395.4,889.1,1395.4,889.1,1395.5,889.1z M1396.1,889.1
	h-0.1C1396.1,889.1,1396.1,889.1,1396.1,889.1z M1357.4,996C1357.4,996.1,1357.4,996.1,1357.4,996
	C1357.4,996.1,1357.4,996.1,1357.4,996z M1357.6,995.9C1357.6,995.9,1357.7,995.9,1357.6,995.9
	C1357.7,995.9,1357.7,995.9,1357.6,995.9z M1357.7,995.9c0.1-0.1,0.2-0.1,0.2-0.1C1357.8,995.8,1357.8,995.8,1357.7,995.9z
	 M1393,889.2c0.3,0,0.5,0,0.7,0C1393.5,889.2,1393.2,889.2,1393,889.2L1393,889.2z M1390.8,915c1-1.8,1.9-3.5,2.9-5.2
	C1392.7,911.5,1391.7,913.2,1390.8,915z M1269,888.4c-0.4,0.2-0.9,0.6-1.3,0.8C1268,888.9,1268.5,888.5,1269,888.4z M1260.2,886.4
	c-1-0.4-2-0.8-3.1-1.2C1258.1,885.6,1259.1,886,1260.2,886.4z M1252.3,883.3c0.9,0.4,1.8,0.7,2.7,1.1
	C1254.1,884,1253.2,883.6,1252.3,883.3z M1249.3,923.3c1.2-1.6,2.3-3,3.4-4.5C1251.6,920.3,1250.5,921.8,1249.3,923.3z
	 M1255.6,914.8c-0.6,0.9-1.2,1.8-1.9,2.7C1254.4,916.5,1255,915.6,1255.6,914.8z M1255.6,914.8c0.6-0.9,1.2-1.7,1.7-2.5
	C1256.8,913,1256.2,913.9,1255.6,914.8z M1240.9,933.4c1-1.2,2-2.4,3-3.6C1243,931,1242,932.2,1240.9,933.4z M1245.8,950.8
	c0.7-0.2,1.4-0.4,2.1-0.6C1247.2,950.4,1246.5,950.6,1245.8,950.8z M1351.2,851.5c-0.1,0.6-0.1,1.2-0.1,1.7
	C1351,852.7,1351.1,852.1,1351.2,851.5z M1243.9,929.9c1-1.2,1.9-2.3,2.8-3.4C1245.8,927.6,1244.9,928.7,1243.9,929.9z M1371.1,882
	c-0.4-0.3-0.8-0.5-1.2-0.8C1370.3,881.5,1370.7,881.7,1371.1,882z M1241.9,952c0.5-0.1,1.1-0.3,1.6-0.5
	C1243,951.7,1242.4,951.8,1241.9,952z M1249.9,949.6c-0.7,0.2-1.3,0.4-1.9,0.6C1248.6,950,1249.2,949.8,1249.9,949.6z M1340.4,856.7
	c-2.5,1.5-5,2.7-7.4,3.7C1335.4,859.4,1337.9,858.2,1340.4,856.7z M1270.2,888.6L1270.2,888.6c-0.2-0.1-0.4-0.2-0.5-0.3
	C1269.8,888.4,1270,888.5,1270.2,888.6z M1349.6,834.7L1349.6,834.7c0.9,1.4,1.7,2.7,2.2,3.9
	C1351.2,837.4,1350.5,836.1,1349.6,834.7L1349.6,834.7z M1352.7,842c-0.1-0.7-0.3-1.5-0.5-2.2C1352.4,840.6,1352.6,841.3,1352.7,842
	z M1261.5,905.6c0.4-0.7,0.7-1.3,1.1-1.9C1262.2,904.3,1261.8,904.9,1261.5,905.6z M1352.7,845c0.1-0.6,0.1-1.3,0.1-1.9
	C1352.8,843.7,1352.8,844.4,1352.7,845z M1267.6,889.1c-0.5,0.1-0.7,0.1-0.7,0.1C1267.1,889.3,1267.4,889.3,1267.6,889.1z
	 M1266.9,889.2c-1.7-0.7-3.3-1.4-5-2.1C1263.6,887.8,1265.2,888.5,1266.9,889.2z M1269.7,888.3c-0.1,0-0.2-0.1-0.3-0.1
	C1269.5,888.3,1269.6,888.3,1269.7,888.3z M1251.7,949.1c0.6-0.2,1.2-0.3,1.9-0.5C1252.9,948.8,1252.3,949,1251.7,949.1z
	 M1269,888.3c0.1,0,0.2,0,0.3-0.1C1269.2,888.3,1269.1,888.3,1269,888.3z M1165,981.3c0.1-0.1,0.3-0.1,0.4-0.2
	C1165.3,981.2,1165.2,981.3,1165,981.3z M1271.2,876.2c-0.5-0.4-1.1-0.7-1.6-1.1C1270.1,875.5,1270.6,875.9,1271.2,876.2z
	 M1275.4,878.7c0.6,0.3,1.2,0.6,1.8,0.9C1276.6,879.2,1276,879,1275.4,878.7z M1284.3,841.3c0.1,0.2,0.2,0.4,0.3,0.5
	C1284.5,841.7,1284.4,841.5,1284.3,841.3z M1275,878.5c-0.5-0.3-1.1-0.6-1.6-0.9C1274,877.9,1274.5,878.2,1275,878.5z M1277,783.4
	c0-0.7-0.1-1.3-0.1-1.9l0,0C1276.9,782.1,1277,782.7,1277,783.4z M1279.4,880.4c-0.6-0.2-1.2-0.4-1.8-0.7
	C1278.2,879.9,1278.8,880.1,1279.4,880.4z M1269.5,875.1c-0.5-0.4-1-0.7-1.5-1.1C1268.5,874.4,1269,874.7,1269.5,875.1z
	 M1286.6,842.1c-0.1,0-0.1,0.1-0.2,0.1C1286.5,842.2,1286.6,842.2,1286.6,842.1z M1281.6,881.1c-0.7-0.2-1.3-0.4-2-0.6
	C1280.3,880.7,1281,880.9,1281.6,881.1z M1271.5,876.5c0.5,0.3,1.1,0.7,1.7,1C1272.6,877.2,1272.1,876.8,1271.5,876.5z M1284,840.5
	c0.1,0.3,0.2,0.5,0.3,0.7C1284.2,841.1,1284.1,840.8,1284,840.5z M1284.2,881.8c-0.7-0.2-1.4-0.3-2.1-0.5
	C1282.8,881.4,1283.5,881.6,1284.2,881.8z M1289.9,839.9c-0.1,0.1-0.1,0.1-0.2,0.2C1289.7,840,1289.8,840,1289.9,839.9z M1266,872.4
	c-0.4-0.3-0.7-0.6-1.1-1C1265.3,871.8,1265.6,872.1,1266,872.4z M1288.4,841c-0.1,0-0.1,0.1-0.2,0.1
	C1288.3,841.1,1288.4,841.1,1288.4,841z M1287.7,841.6L1287.7,841.6L1287.7,841.6z M1287.1,841.9c-0.1,0-0.1,0.1-0.2,0.1
	C1287,841.9,1287.1,841.9,1287.1,841.9z M1289.1,840.5c-0.1,0.1-0.1,0.1-0.2,0.2C1289,840.6,1289.1,840.5,1289.1,840.5z
	 M1284.7,841.9c0.1,0.1,0.2,0.3,0.3,0.4C1284.9,842.2,1284.8,842,1284.7,841.9z M1285,842.3c0.1,0.1,0.2,0.1,0.3,0.2
	C1285.2,842.4,1285.1,842.3,1285,842.3z M1293.3,836.9l-0.1,0.1C1293.2,837,1293.2,836.9,1293.3,836.9z M1290.6,839.3
	c-0.1,0-0.1,0.1-0.2,0.1C1290.5,839.4,1290.6,839.3,1290.6,839.3z M1292.3,837.8L1292.3,837.8L1292.3,837.8z M1266.3,872.6
	c0.4,0.4,0.9,0.7,1.4,1.1C1267.2,873.4,1266.7,873,1266.3,872.6z M1244.4,880.2c-0.4-0.1-0.7-0.3-1.1-0.4
	C1243.7,879.9,1244.1,880,1244.4,880.2z M1137,994.4c-0.3,0.1-0.6,0.3-0.9,0.4C1136.4,994.7,1136.7,994.5,1137,994.4z M1141.8,992.3
	c-0.2,0.1-0.4,0.2-0.6,0.3C1141.4,992.4,1141.6,992.3,1141.8,992.3z M1161.4,983.1c-0.3,0.1-0.5,0.2-0.8,0.4
	C1160.9,983.3,1161.1,983.2,1161.4,983.1z M1147.2,989.8c-0.3,0.1-0.6,0.3-1,0.4C1146.5,990.1,1146.8,989.9,1147.2,989.8z
	 M1151.5,987.8c0.1-0.1,0.2-0.1,0.4-0.2C1151.7,987.7,1151.6,987.7,1151.5,987.8z M1177.3,975.2c0.2-0.1,0.4-0.2,0.6-0.3
	C1177.7,974.9,1177.5,975.1,1177.3,975.2z M1395,889.2c-0.1,0-0.2,0-0.2,0C1394.9,889.2,1394.9,889.2,1395,889.2z M1181.9,972.8
	c-0.2,0.1-0.4,0.2-0.6,0.3C1181.4,973,1181.6,972.9,1181.9,972.8z M1173.6,977c0.1-0.1,0.2-0.1,0.3-0.2
	C1173.9,976.9,1173.7,977,1173.6,977z M1169.2,979.3c0.3-0.1,0.5-0.3,0.8-0.4C1169.7,979,1169.5,979.1,1169.2,979.3z M1156.6,985.4
	c-0.3,0.1-0.6,0.3-0.8,0.4C1156.1,985.6,1156.4,985.5,1156.6,985.4z M1224.3,947.9L1224.3,947.9L1224.3,947.9z M1237.5,877.5
	c0.4,0.2,0.8,0.3,1.2,0.5C1238.3,877.8,1237.9,877.7,1237.5,877.5z M1228.4,947.4c4.1-4.3,7.7-8.3,10.9-12.1
	C1236.1,939,1232.4,943,1228.4,947.4c0,0,0,0.4,0.1,0.9C1228.4,947.7,1228.4,947.4,1228.4,947.4z M1232.9,875.8
	c-0.3-0.1-0.6-0.2-0.9-0.3C1232.3,875.6,1232.6,875.7,1232.9,875.8z M1101.2,1009.3c0.4-0.2,0.8-0.3,1.2-0.5
	C1102,1009,1101.6,1009.1,1101.2,1009.3z M1108.6,1006.3c-0.3,0.1-0.6,0.2-0.9,0.4C1108,1006.6,1108.3,1006.5,1108.6,1006.3z
	 M1137.7,1026.5l-11.2,8.7l-1,0.8L1137.7,1026.5z M1131.4,996.8c-0.3,0.1-0.7,0.3-1,0.4C1130.8,997.1,1131.1,997,1131.4,996.8z
	 M1125.4,999.4c0.1,0,0.2-0.1,0.3-0.1C1125.6,999.3,1125.5,999.4,1125.4,999.4z M1113.4,1004.4c0.3-0.1,0.5-0.2,0.8-0.3
	C1114,1004.2,1113.7,1004.3,1113.4,1004.4z M1119.3,1002c0.4-0.2,0.7-0.3,1.1-0.5C1120.1,1001.7,1119.7,1001.8,1119.3,1002z
	 M1315.6,863.7c1.3,0,2.6,0,4-0.1C1318.2,863.7,1316.8,863.7,1315.6,863.7z M1361.5,873.1c0.4,0.5,0.8,1,1.2,1.4
	C1362.3,874,1361.9,873.6,1361.5,873.1z M1354.6,845.5c1.2-1.1,2.8-2.2,4.8-3.1c0.2-0.1,1.4-0.5,3.2-1.1c-1.8,0.5-3,0.9-3.2,1.1
	C1357.4,843.3,1355.8,844.4,1354.6,845.5z M1391.7,889.1c-0.2,0-0.4,0-0.6,0C1391.4,889.1,1391.6,889.1,1391.7,889.1z M1356.9,866.4
	c0.3,0.5,0.6,1.1,1,1.6C1357.6,867.5,1357.2,867,1356.9,866.4z M1392.1,889.1c0.2,0,0.4,0,0.6,0
	C1392.5,889.2,1392.3,889.2,1392.1,889.1z M1351.4,850.6c0.2-0.6,0.4-1.2,0.7-1.8C1351.7,849.5,1351.5,850.1,1351.4,850.6z
	 M1390,889c0.3,0,0.5,0.1,0.8,0.1C1390.5,889,1390.3,889,1390,889z M1352,848.9c0.3-0.6,0.6-1.2,1.1-1.7
	C1352.6,847.7,1352.3,848.3,1352,848.9z M1353.1,847.2c0.4-0.6,0.9-1.1,1.5-1.7C1354,846,1353.5,846.6,1353.1,847.2z M1361.2,872.7
	c-0.5-0.6-1-1.3-1.5-1.9C1360.2,871.5,1360.7,872.1,1361.2,872.7z M1358.3,868.7c0.4,0.5,0.7,1.1,1.1,1.6
	C1359,869.8,1358.7,869.3,1358.3,868.7z M1363.2,875c0.4,0.4,0.7,0.8,1.1,1.2C1363.9,875.8,1363.5,875.4,1363.2,875z M1388.6,888.8
	c0.4,0.1,0.7,0.1,1.1,0.1C1389.4,888.9,1389,888.9,1388.6,888.8z M1379.7,886.5c-0.5-0.2-1-0.4-1.5-0.6
	C1378.7,886.1,1379.2,886.3,1379.7,886.5z M1373.2,883.4c0.5,0.3,1,0.6,1.4,0.8C1374.2,883.9,1373.7,883.6,1373.2,883.4z
	 M1381.2,887.1c-0.4-0.1-0.8-0.3-1.1-0.4C1380.4,886.8,1380.8,886.9,1381.2,887.1z M1376.2,885c-0.4-0.2-0.8-0.4-1.1-0.6
	C1375.5,884.6,1375.8,884.8,1376.2,885z M1376.7,885.2c0.4,0.2,0.8,0.4,1.2,0.6C1377.5,885.6,1377.1,885.4,1376.7,885.2z
	 M1386.1,888.4c0.3,0.1,0.6,0.1,0.9,0.2C1386.7,888.5,1386.4,888.5,1386.1,888.4z M1387.4,888.6c0.3,0,0.6,0.1,0.9,0.1
	C1388,888.7,1387.7,888.7,1387.4,888.6z M1384.4,888c-0.4-0.1-0.9-0.2-1.3-0.4C1383.5,887.8,1384,887.9,1384.4,888z M1381.6,887.2
	c0.3,0.1,0.7,0.2,1,0.3C1382.3,887.4,1382,887.3,1381.6,887.2z M1384.4,888c0.4,0.1,0.9,0.2,1.3,0.3
	C1385.3,888.2,1384.9,888.1,1384.4,888z M1355.8,787.6c-0.8,0.1-1.6,0.2-2.4,0.3C1354.2,787.8,1355,787.7,1355.8,787.6z
	 M1319.5,863.6c1.4-0.1,2.8-0.3,4.2-0.6C1322.3,863.3,1320.9,863.5,1319.5,863.6z M1294.5,857.3L1294.5,857.3L1294.5,857.3z
	 M1371.5,882.3c0.5,0.4,1.1,0.7,1.6,1C1372.6,883,1372,882.6,1371.5,882.3z M1346.3,831.2L1346.3,831.2L1346.3,831.2z M1347.1,832
	L1347.1,832L1347.1,832z M1294.3,856.9L1294.3,856.9L1294.3,856.9z M1285.8,842.4h-0.1C1285.7,842.4,1285.7,842.4,1285.8,842.4z
	 M1294.1,836.1l0.1-0.1L1294.1,836.1z M1294.4,857.2C1294.4,857.2,1294.5,857.2,1294.4,857.2
	C1294.5,857.2,1294.4,857.2,1294.4,857.2z M1347.8,832.7C1347.7,832.7,1347.7,832.7,1347.8,832.7
	C1347.7,832.7,1347.7,832.7,1347.8,832.7z M1294.4,857C1294.4,857.1,1294.4,857.1,1294.4,857C1294.4,857.1,1294.4,857.1,1294.4,857z
	 M1349.4,834.5L1349.4,834.5L1349.4,834.5z M1348.8,833.8L1348.8,833.8L1348.8,833.8z M1286,842.4c0,0,0.1,0,0.2,0
	C1286.1,842.3,1286.1,842.4,1286,842.4z M1360,787.3c0.5,0,1.1,0,1.6,0c-0.4,0-0.8,0-1.2,0C1360.3,787.3,1360.1,787.3,1360,787.3z
	 M1363,787.3c-0.1,0-0.3,0-0.4,0s-0.2,0-0.3,0C1362.5,787.3,1362.8,787.3,1363,787.3z M1352.7,788.1c-0.5,0.1-1.1,0.2-1.6,0.3
	C1351.6,788.3,1352.1,788.2,1352.7,788.1z M1355.8,787.6c0.9-0.1,1.7-0.2,2.6-0.2c-0.1,0-0.2,0-0.2,0c-0.1,0-0.2,0-0.4,0
	C1357.2,787.5,1356.5,787.6,1355.8,787.6z M1350.2,788.5c-0.5,0.1-1,0.2-1.5,0.3C1349.2,788.8,1349.7,788.7,1350.2,788.5z
	 M1368.8,787.5c-0.4,0-0.7-0.1-1.1-0.1c-0.2,0-0.4,0-0.7,0c-0.7,0-1.4-0.1-2.1-0.1h-0.1C1366.2,787.3,1367.5,787.4,1368.8,787.5z
	 M1349.2,834.3C1349.2,834.2,1349.2,834.2,1349.2,834.3C1349.2,834.2,1349.2,834.2,1349.2,834.3z M1348,789.1
	c-0.5,0.1-1.1,0.3-1.6,0.4C1346.9,789.4,1347.4,789.2,1348,789.1z M1356.6,996.6C1356.6,996.5,1356.6,996.5,1356.6,996.6
	C1356.6,996.5,1356.6,996.5,1356.6,996.6z M935.7,1132.2c-0.2,0-0.4,0-0.6,0C935.3,1132.2,935.5,1132.2,935.7,1132.2z M936.4,1132.1
	c0.2,0,0.4,0,0.7,0C936.8,1132.1,936.6,1132.1,936.4,1132.1z M934.5,1132.2c-0.2,0-0.4,0-0.6,0
	C934.1,1132.2,934.3,1132.2,934.5,1132.2z M938.4,1132.1c-0.2,0-0.5,0-0.7,0C938,1132.1,938.2,1132.1,938.4,1132.1z M933.3,1132.2
	c-0.2,0-0.4,0-0.6,0C932.9,1132.2,933.1,1132.2,933.3,1132.2z M932.2,1132.2c-0.2,0-0.3,0-0.5,0
	C931.8,1132.2,932,1132.2,932.2,1132.2z M946.1,1131.9c-0.3,0-0.6,0-1,0C945.4,1131.9,945.7,1131.9,946.1,1131.9z M943.6,1131.9
	c0.3,0,0.6,0,0.9,0C944.2,1131.9,943.9,1131.9,943.6,1131.9z M939.9,1132.1c-0.3,0-0.5,0-0.8,0
	C939.3,1132.1,939.6,1132.1,939.9,1132.1z M941.3,1132c-0.2,0-0.5,0-0.7,0C940.8,1132,941.1,1132,941.3,1132z M942.9,1132
	c-0.3,0-0.5,0-0.7,0C942.4,1132,942.6,1132,942.9,1132z M926.5,1132.1c-0.1,0-0.2,0-0.2,0C926.4,1132.1,926.4,1132.1,926.5,1132.1z
	 M930.7,1132.2c0.1,0,0.3,0,0.4,0C931,1132.2,930.8,1132.2,930.7,1132.2z M926.1,1132.1c-0.1,0-0.1,0-0.2,0
	C925.9,1132.1,926,1132.1,926.1,1132.1z M925.7,1132c-0.1,0-0.2,0-0.3-0.1C925.5,1132,925.6,1132,925.7,1132z M948.1,896.9v118.4
	l62.2-35.9l0,0l21-12.1c26.4-42.9,66.3-107,71.3-109.2c2.7-1.2,9-3.9,21.2-4.7c-5-3.5-10.9-6.6-17.9-9.2l-124.3,72L948.1,896.9z
	 M1440.8,1065.7V990l-292.1,168l226.4-130.2L1440.8,1065.7z M946.7,1131.8c0.3,0,0.7,0,1,0C947.4,1131.8,947.1,1131.8,946.7,1131.8z
	 M930.1,1132.2c-0.1,0-0.3,0-0.4,0C929.9,1132.2,930,1132.2,930.1,1132.2z M927.1,1132.1c-0.1,0-0.2,0-0.3,0
	C926.9,1132.1,927,1132.1,927.1,1132.1z M928.9,1132.2c0.1,0,0.3,0,0.4,0C929.1,1132.2,929,1132.2,928.9,1132.2z M928.4,1132.2
	c-0.1,0-0.2,0-0.3,0C928.2,1132.2,928.3,1132.2,928.4,1132.2z M927.4,1132.2c0.1,0,0.2,0,0.3,0
	C927.6,1132.2,927.5,1132.2,927.4,1132.2z M1187.5,1081.7c-1,0.4-1.9,0.8-2.9,1.2c0.8-0.3,1.7-0.7,2.6-1l31,17.9l0.3-0.2
	L1187.5,1081.7z M1023.8,1170.5c0.1-0.1,0.2-0.1,0.2-0.2C1023.9,1170.4,1023.9,1170.4,1023.8,1170.5z M1022.5,1171.4
	c0.1-0.1,0.2-0.1,0.3-0.2C1022.7,1171.3,1022.6,1171.4,1022.5,1171.4z M1025.2,1169.4c-0.1,0-0.1,0.1-0.2,0.1
	C1025.1,1169.5,1025.1,1169.4,1025.2,1169.4z M1026.3,1168.5l0.1-0.1C1026.4,1168.4,1026.3,1168.4,1026.3,1168.5z M1027.5,1167.4
	C1027.6,1167.4,1027.6,1167.4,1027.5,1167.4C1027.6,1167.4,1027.6,1167.4,1027.5,1167.4z M1020.5,1172.8c-0.1,0.1-0.2,0.1-0.3,0.2
	C1020.2,1173,1020.3,1172.9,1020.5,1172.8z M948.3,1156.8c-0.3,0-0.6,0-0.8,0C947.7,1156.8,948,1156.8,948.3,1156.8z M1015.5,1168
	c-0.1,0-0.1,0-0.2,0C1015.4,1168,1015.5,1168,1015.5,1168z M948.4,1131.8c0.3,0,0.6,0,1,0C949.1,1131.8,948.7,1131.8,948.4,1131.8z
	 M1021.3,1172.3c0.1-0.1,0.2-0.1,0.3-0.2C1021.5,1172.1,1021.4,1172.2,1021.3,1172.3z M1019.3,1173.5c-0.1,0.1-0.2,0.1-0.4,0.2
	C1019.1,1173.6,1019.2,1173.6,1019.3,1173.5z M1014.1,1168.1h-0.1C1014,1168.1,1014,1168.1,1014.1,1168.1z M965.7,1131.1
	c-0.5,0-1,0-1.6,0.1C964.7,1131.1,965.2,1131.1,965.7,1131.1z M960.5,1131.3c0.5,0,1.1,0,1.6-0.1
	C961.6,1131.3,961,1131.3,960.5,1131.3z M963.9,1131.2c-0.6,0-1.1,0-1.7,0.1C962.8,1131.2,963.4,1131.2,963.9,1131.2z M967.7,1131
	c-0.6,0-1.1,0-1.7,0.1C966.6,1131,967.1,1131,967.7,1131z M946.6,1156.8c0.2,0,0.4,0,0.7,0C947.1,1156.8,946.8,1156.8,946.6,1156.8z
	 M956.6,1131.5c-0.5,0-0.9,0-1.4,0.1C955.7,1131.5,956.1,1131.5,956.6,1131.5z M953.4,1131.6c0.4,0,0.8,0,1.3-0.1
	C954.3,1131.6,953.8,1131.6,953.4,1131.6z M960.2,1131.3c-0.5,0-1,0-1.5,0.1C959.2,1131.4,959.7,1131.3,960.2,1131.3z M951.8,1131.7
	c0.4,0,0.8,0,1.2,0C952.6,1131.6,952.2,1131.6,951.8,1131.7z M950.1,1131.7c0.3,0,0.7,0,1,0C950.8,1131.7,950.4,1131.7,950.1,1131.7
	z M956.9,1131.5c0.5,0,1,0,1.5-0.1C957.9,1131.4,957.4,1131.4,956.9,1131.5z M987.8,1563.6c1.6,0.4,3.3,0.8,4.9,1.3
	C991.1,1564.5,989.5,1564,987.8,1563.6z M1246,1370.2c0,0.1,0,0.1,0,0.2C1246,1370.4,1246,1370.3,1246,1370.2z M1245.8,1371.5
	c0-0.1,0-0.1,0-0.2C1245.9,1371.4,1245.8,1371.5,1245.8,1371.5z M1246.2,1369.3v-0.1C1246.2,1369.2,1246.2,1369.2,1246.2,1369.3z
	 M1223.5,1366.7c0.4-0.1,0.8-0.2,1.1-0.4C1224.2,1366.4,1223.8,1366.6,1223.5,1366.7z M1299.1,1335.1c-0.1,0-0.1,0-0.2,0
	C1298.9,1335.1,1299,1335.1,1299.1,1335.1z M1251.3,1384.7c0.1,0.1,0.2,0.2,0.3,0.2C1251.5,1384.9,1251.4,1384.8,1251.3,1384.7z
	 M1334.6,1360.7c0.2,0.3,0.4,0.6,0.5,0.9C1334.9,1361.3,1334.7,1361,1334.6,1360.7z M1337,1368.1c0-0.3-0.1-0.7-0.1-1
	C1336.9,1367.4,1337,1367.8,1337,1368.1z M1225.3,1366c0.1-0.1,0.2-0.1,0.3-0.2C1225.5,1365.8,1225.4,1365.9,1225.3,1366z
	 M1250.4,1383.9c0.1,0.1,0.1,0.1,0.2,0.2C1250.5,1384.1,1250.4,1384,1250.4,1383.9z M1252.6,1385.7c-0.1-0.1-0.2-0.1-0.3-0.2
	C1252.4,1385.6,1252.5,1385.7,1252.6,1385.7z M644.3,1409.6l19.8,11.4l0,0L644.3,1409.6L644.3,1409.6z M1045.8,1600.2l18.8-10.9l0,0
	L1045.8,1600.2L1045.8,1600.2z M1335.7,1362.7c-0.1-0.2-0.2-0.5-0.3-0.7C1335.4,1362.2,1335.6,1362.5,1335.7,1362.7z M1226.6,1365.2
	C1226.5,1365.2,1226.5,1365.2,1226.6,1365.2C1226.5,1365.2,1226.5,1365.2,1226.6,1365.2z M1394.1,889.2c0.1,0,0.2,0,0.3,0
	C1394.3,889.2,1394.2,889.2,1394.1,889.2z M1002.7,1568.6c-3.3-1.5-6.6-2.7-9.9-3.7C996,1565.9,999.3,1567.2,1002.7,1568.6
	c4.8,2.1,9.2,4.4,13.4,6.8C1011.9,1573,1007.4,1570.7,1002.7,1568.6z M891.9,728.8L891.9,728.8v-82l0,0V728.8L891.9,728.8z
	 M1215.7,1360.6c0.8-1.6,1.6-3.1,2.3-4.5C1217.2,1357.5,1216.5,1359,1215.7,1360.6z M1224.6,1343.4c0,0-2,3.6-5.6,10.7
	C1222.5,1347.1,1224.6,1343.4,1224.6,1343.4L1224.6,1343.4z M1264.6,1313l5.5-2.5L1264.6,1313L1264.6,1313z M1256.3,1366.6
	c0.2,0.9,0.5,1.8,0.8,2.6C1256.8,1368.4,1256.5,1367.5,1256.3,1366.6z M1230.2,1341.2l-3.4-7.5l0,0L1230.2,1341.2L1230.2,1341.2z
	 M1010.2,1620.8l35.6-20.5l0,0L1010.2,1620.8z M446.2,1048c-0.3-2.1-0.7-4.2-1-6.4C445.5,1043.8,445.9,1045.9,446.2,1048z
	 M549.3,1280c8.6,3.9,17.1,7.3,25.3,10.4C566.4,1287.3,557.9,1283.9,549.3,1280z M450.3,1083.5c0.1,1.6,0.2,3.1,0.3,4.7
	C450.5,1086.7,450.4,1085.1,450.3,1083.5z M451,1103c0-1.3,0-2.6,0-4C451,1100.3,451,1101.7,451,1103z M450.6,1088.2
	c0.1,1.5,0.2,3,0.2,4.5C450.8,1091.2,450.7,1089.7,450.6,1088.2z M598.4,1299.3c2.2,0.8,4.3,1.7,6.4,2.5
	C602.7,1301,600.6,1300.2,598.4,1299.3z M574.6,1290.4c3.5,1.3,7,2.6,10.4,3.9C581.6,1293,578.2,1291.7,574.6,1290.4z
	 M1335.8,1363.2c0.1,0.3,0.2,0.6,0.3,0.9C1336.1,1363.7,1336,1363.4,1335.8,1363.2z M604.8,1301.8c2.1,0.8,4.1,1.7,6.1,2.6
	C608.9,1303.5,606.8,1302.7,604.8,1301.8z M585.1,1294.3c2.3,0.8,4.5,1.7,6.8,2.5C589.6,1296,587.4,1295.2,585.1,1294.3z
	 M538.3,1274.6c-20.8-10.8-41.5-25.5-59.4-48.2c-21.5-27.4-29.7-42.5-32.1-55.7c2.3,13.2,10.5,28.3,32.1,55.7
	C496.8,1249.1,517.5,1263.8,538.3,1274.6z M610.9,1304.4c4,1.7,7.8,3.6,11.4,5.5C618.7,1308,614.9,1306.2,610.9,1304.4z
	 M1034.9,1588.9c-1.5-1.3-3-2.6-4.6-3.9C1031.8,1586.3,1033.4,1587.6,1034.9,1588.9z M545.7,1278.3c-2.4-1.2-4.9-2.4-7.4-3.6
	C540.8,1275.9,543.2,1277.1,545.7,1278.3z M1912.9,1099.6l-848.3,489.8l0,0l0,0l0,0c-9.8-19.1-26.7-36.6-54.4-48.8
	c-37.1-16.4-72.8-1.7-108.2,17.7l-167.9-96.9l-70-40.4c10-24.6,30.1-43.3,29-80.7c-2.2-78.2-109.9-49.6-177.1-135.3
	s-4.5-51.1-39.2-212.9c-7.9-36.7-23.5-62.7-43-80.9l433.6-250.3v11.5L747,741.9v38.8l142.8,82.4l-8.6-5v193.5l2,1.1l-11.6,6.7
	l121.6,70.2c-1.9,0.1-3.9,0.2-6.1,0.3c1.9-0.1,3.7-0.2,5.4-0.3l-121.3-70L731.9,1220v13.9l208.3,121.6l109.2-123.6l43.8,26.5v2.5
	l27.8,16l27.8-16v-1.2l318.4-177.2l-26.2-15.1l27.8,16l27.8-16V957.8l57.4-65.5L1912.9,1099.6z M777.3,971.3c0-1.5-3.5-2.8-7.8-2.8
	s-7.8,1.3-7.8,2.8s3.5,2.8,7.8,2.8S777.3,972.9,777.3,971.3z M758.6,947.4c0,3.1,5.3,5.6,11.9,5.6s11.9-2.5,11.9-5.6
	s-5.3-5.6-11.9-5.6S758.6,944.3,758.6,947.4z M754.1,958.4c0,1.7,3.1,3.1,6.9,3.1s6.9-1.4,6.9-3.1c0-1.7-3.1-3.1-6.9-3.1
	S754.1,956.7,754.1,958.4z M556.9,1161.2c6.6,0,11.9-2.5,11.9-5.6s-5.3-5.6-11.9-5.6s-11.9,2.5-11.9,5.6S550.3,1161.2,556.9,1161.2z
	 M565.8,1179.5c0-1.5-3.5-2.8-7.8-2.8s-7.8,1.3-7.8,2.8s3.5,2.8,7.8,2.8S565.8,1181,565.8,1179.5z M573.3,1166.6
	c0-1.7-3.1-3.1-6.9-3.1s-6.9,1.4-6.9,3.1s3.1,3.1,6.9,3.1S573.3,1168.3,573.3,1166.6z M1017.2,1465.1c3.8,0,6.9-1.4,6.9-3.1
	s-3.1-3.1-6.9-3.1s-6.9,1.4-6.9,3.1C1010.3,1463.7,1013.4,1465.1,1017.2,1465.1z M1033.6,1474.9c0-1.5-3.5-2.8-7.8-2.8
	s-7.8,1.3-7.8,2.8s3.5,2.8,7.8,2.8C1030.1,1477.7,1033.6,1476.4,1033.6,1474.9z M1038.7,1451c0-3.1-5.3-5.6-11.9-5.6
	s-11.9,2.5-11.9,5.6s5.3,5.6,11.9,5.6C1033.4,1456.6,1038.7,1454.1,1038.7,1451z M1250.8,1322l26.7,4c3.1,1.8,6.9,1.8,10,0l6.9-3.9
	c1.3-0.7,2.3-1.7,3.1-2.7l0,0c3.4-4.6,2.4-11.5-3.1-14.6l-16.8-9.7c-3.1-1.8-6.9-1.8-10,0l-16.8,9.7c-1.4,0.8-2.4,1.8-3.2,3l0,0
	C1244.4,1312.2,1245.5,1318.9,1250.8,1322z M1371.2,1369.5c-3.2-3-23.1-12.4-23.1-12.4s-1.5,0.2-3.7,0.6
	c-5.9-4.8-13.3-10.3-13.3-10.3s-4.4-0.4-9.7,0.2c5.2-1.4,10.1-3,10.1-3l19.9,8c0,0,3.6,0.1,0.4-2.9s-23.1-12.4-23.1-12.4
	s-8.8,1-15.9,4.6l-5.4-4.5c-1.3-0.8-2.8-1.3-4.2-1.7c-1.8-3.3-6-8.3-10.4-12.6l-4,2.3c3.1,3.1,6.4,6.7,8.8,10
	c-2.1,0.3-4.1,0.9-5.9,2l-34.7,20c-1.1,3-1.4,6.3-0.6,9.4c-0.7-3.1-0.5-6.4,0.6-9.4l-3.3,1.9c-3.7,2.1-6.1,5.4-7.2,8.9
	c-5.1,0.2-13.1-1.8-19.1-3.6c1.5-1.3,2.5-3,3-5l15.8-21.9c1.5-5.9-2.5-11.4-8-12.3l0,0c-1.4-0.2-2.9-0.2-4.4,0.2l-18.6,5.2
	c-3.4,1-6.1,3.7-7,7.1l-4.8,18.8c-1.6,6.1,2.7,11.6,8.3,12.4l0,0c1.3,0.2,2.7,0.1,4.1-0.3l6.4-1.8l-0.4,0.1c7.2,2.8,18.4,5.6,24,5.5
	c0,3.7,1.2,7.5,3.8,10.4c-4.7,3.9-7.9,8.2-7.9,8.2s-2.2,21.9-1.3,26.2c0.9,4.3,2.7,1.2,2.7,1.2l3.5-21.2c0,0,6.2-5.4,10.8-10
	l6.3,1.7c-5.1,4.1-8.8,8.8-8.8,8.8s-2.2,21.9-1.3,26.2c0.9,4.3,2.7,1.2,2.7,1.2l3.5-21.2c0,0,8.9-7.6,13.1-12.5l-0.6-0.2l8.2,2.3
	c-5.5,4.2-9.6,9.5-9.6,9.5s-2.2,21.9-1.3,26.2c0.9,4.3,2.7,1.2,2.7,1.2l3.5-21.2c0,0,9.7-8.3,13.7-13.2l-4.8-1.3l5.7,1.6
	c4.9,2.8,10.9,2.8,15.8,0l23.1-13.6c3.3-1.9,5.6-4.7,6.8-7.9l0,0c0.2-0.4,0.3-0.8,0.4-1.2l0,0c0.5-1.8,0.7-3.6,0.6-5.4l0,0
	c3.9-0.9,8.3-2.2,11-3.1l2.3,1.5c0,0,3,0.7,1.4-2l19,7.6C1370.8,1372.3,1374.3,1372.5,1371.2,1369.5z M1528.7,1007
	c3.8,0,6.9-1.4,6.9-3.1s-3.1-3.1-6.9-3.1s-6.9,1.4-6.9,3.1S1524.9,1007,1528.7,1007z M1545.1,1016.8c0-1.5-3.5-2.8-7.8-2.8
	s-7.8,1.3-7.8,2.8s3.5,2.8,7.8,2.8S1545.1,1018.3,1545.1,1016.8z M1550.2,992.9c0-3.1-5.3-5.6-11.9-5.6s-11.9,2.5-11.9,5.6
	s5.3,5.6,11.9,5.6S1550.2,996,1550.2,992.9z M1336.3,1364.3c0.1,0.4,0.2,0.8,0.3,1.1C1336.5,1365.1,1336.4,1364.7,1336.3,1364.3z
	 M1336.8,1366.7c0-0.3-0.1-0.6-0.2-0.9C1336.7,1366.1,1336.8,1366.4,1336.8,1366.7z M1329,1355.5l-9.1-7.7l9.3,7.8
	c2.3,1.3,4,3,5.3,5c1.4-0.6,2.7-1.1,4.1-1.5l-6.2-4C1332.4,1355.1,1331.1,1355.2,1329,1355.5z M446.3,1166.8
	c-0.1-0.6-0.1-1.3-0.1-1.9C446.2,1165.6,446.2,1166.2,446.3,1166.8z M446.4,1167.8c0.1,0.9,0.3,1.9,0.4,2.9
	C446.6,1169.7,446.5,1168.7,446.4,1167.8z M446,1162.2c0-0.3,0-0.6,0-0.9C446,1161.5,446,1161.8,446,1162.2z M446.1,1163.1
	c0,0.6,0,1.2,0.1,1.9C446.1,1164.3,446.1,1163.7,446.1,1163.1z M1016.6,1167.9h0.1C1016.7,1167.9,1016.7,1167.9,1016.6,1167.9z
	 M1257.5,795.6L1257.5,795.6L1257.5,795.6z M1255.6,840.5v-0.1V840.5z M1257.8,863.8c0.2,0.3,0.5,0.6,0.8,1
	C1258.3,864.4,1258.1,864.1,1257.8,863.8z M1259.5,865.8c-0.2-0.3-0.4-0.5-0.6-0.8C1259,865.3,1259.3,865.6,1259.5,865.8z
	 M1163.1,1092.9c0.1-0.1,0.2-0.1,0.3-0.2C1163.3,1092.8,1163.2,1092.9,1163.1,1092.9z M1259.1,773.2c0-0.1,0-0.2,0-0.3
	C1259.1,773,1259.1,773.1,1259.1,773.2z M1256.1,856.5v0.1c0,0.1,0,0.1,0,0.2C1256.2,856.7,1256.1,856.6,1256.1,856.5z
	 M1255.7,835.4C1255.7,835.3,1255.7,835.3,1255.7,835.4C1255.7,835.3,1255.7,835.3,1255.7,835.4z M1255.9,852.8c0-0.1,0-0.1,0-0.2
	C1255.9,852.7,1255.9,852.7,1255.9,852.8z M1255.7,848.2L1255.7,848.2L1255.7,848.2z M1255.8,850.5v-0.1
	C1255.8,850.5,1255.8,850.5,1255.8,850.5z M1255.7,845.6c0,0.1,0,0.1,0,0.2C1255.7,845.7,1255.7,845.7,1255.7,845.6z M1258.3,783.3
	L1258.3,783.3L1258.3,783.3z M1257.9,789.1L1257.9,789.1L1257.9,789.1z M1258,787.2c0-0.1,0-0.1,0-0.2
	C1258,787.1,1258,787.1,1258,787.2z M1162.3,1093.4c0.1-0.1,0.2-0.1,0.3-0.2C1162.4,1093.3,1162.4,1093.4,1162.3,1093.4z
	 M1259,774.5c0,0.1,0,0.2,0,0.3C1258.9,774.7,1259,774.6,1259,774.5z M1161.6,1093.9c0.1,0,0.1-0.1,0.2-0.2
	C1161.7,1093.8,1161.6,1093.9,1161.6,1093.9z M1258.9,775.9L1258.9,775.9L1258.9,775.9z M1258.8,777.2c0-0.1,0-0.1,0-0.2
	C1258.8,777.1,1258.8,777.1,1258.8,777.2z M1017.8,1167.6C1017.7,1167.6,1017.7,1167.7,1017.8,1167.6
	C1017.7,1167.7,1017.7,1167.6,1017.8,1167.6z M1258.7,778.4C1258.7,778.4,1258.7,778.5,1258.7,778.4
	C1258.7,778.5,1258.7,778.4,1258.7,778.4z M1258.4,781.5c0,0.1,0,0.1,0,0.2C1258.4,781.6,1258.4,781.6,1258.4,781.5z M1259,773.6
	c0,0.1,0,0.2,0,0.3C1259,773.8,1259,773.7,1259,773.6z M1404.9,892.3c-0.1,0.1-0.2,0.2-0.3,0.3
	C1404.7,892.5,1404.8,892.4,1404.9,892.3z M1404.1,893.2c-0.1,0.1-0.2,0.2-0.2,0.3C1403.9,893.4,1404,893.3,1404.1,893.2z
	 M1402.9,894.8c0.1-0.1,0.2-0.2,0.2-0.3C1403.1,894.6,1403,894.7,1402.9,894.8z M1402.4,895.6c-0.1,0.2-0.2,0.3-0.3,0.5
	C1402.2,895.9,1402.3,895.7,1402.4,895.6z M1405.4,891.7c0.1-0.1,0.2-0.2,0.2-0.3C1405.5,891.5,1405.5,891.6,1405.4,891.7z
	 M1399.7,899.6c-0.4,0.7-0.9,1.4-1.3,2.2C1398.8,901.1,1399.2,900.3,1399.7,899.6z M1396.7,904.5c-0.5,0.8-0.9,1.6-1.4,2.4
	C1395.8,906,1396.3,905.3,1396.7,904.5z M1399.7,899.6c0.4-0.7,0.9-1.3,1.3-2C1400.6,898.2,1400.1,898.9,1399.7,899.6z M1396.4,889
	C1396.4,889,1396.3,889,1396.4,889C1396.3,889,1396.4,889,1396.4,889z M1398.1,902.1c-0.5,0.7-0.9,1.5-1.4,2.3
	C1397.2,903.6,1397.7,902.9,1398.1,902.1z M1401.2,897.2c0.1-0.2,0.2-0.3,0.4-0.5C1401.5,896.9,1401.4,897.1,1401.2,897.2z
	 M1256.3,857.7c0,0.1,0,0.2,0,0.3C1256.3,857.9,1256.3,857.8,1256.3,857.7z M1256.6,860.2L1256.6,860.2L1256.6,860.2z M1256.9,861.3
	c0-0.1,0-0.1-0.1-0.2C1256.8,861.2,1256.8,861.2,1256.9,861.3z M1257.3,862.8c0-0.1-0.1-0.1-0.1-0.2
	C1257.2,862.7,1257.3,862.7,1257.3,862.8z M1256.4,859v0.1V859z M1263.4,870c0.4,0.3,0.7,0.7,1.1,1l0.1,0.1
	C1264.2,870.8,1263.8,870.4,1263.4,870z M1257,861.9c0,0.1,0,0.2,0.1,0.2C1257,862.1,1257,862,1257,861.9z M1262.2,868.8
	c0.3,0.3,0.5,0.5,0.8,0.8C1262.7,869.4,1262.5,869.1,1262.2,868.8z M1257.5,863.3c0,0-0.1-0.1-0.1-0.2
	C1257.5,863.2,1257.5,863.3,1257.5,863.3z M1261,867.6c0.2,0.3,0.5,0.5,0.8,0.8C1261.5,868.1,1261.3,867.8,1261,867.6z
	 M1260.7,867.2c-0.3-0.4-0.6-0.7-0.9-1.1C1260.1,866.5,1260.4,866.9,1260.7,867.2z M1258.5,780.1V780
	C1258.5,780,1258.5,780,1258.5,780.1z M948.3,1034.8L948.3,1034.8L948.3,1034.8z M949.8,1036.2L949.8,1036.2L949.8,1036.2z
	 M955.6,1040.2L955.6,1040.2L955.6,1040.2z M951.5,1037.6C951.6,1037.6,951.6,1037.6,951.5,1037.6
	C951.6,1037.6,951.6,1037.6,951.5,1037.6z M953.5,1039C953.5,1039,953.5,1038.9,953.5,1039C953.5,1038.9,953.5,1039,953.5,1039z
	 M946.9,1033.4L946.9,1033.4L946.9,1033.4z M1005.8,1038.5c0.1,0,0.1,0,0.2,0C1005.9,1038.5,1005.9,1038.5,1005.8,1038.5z
	 M994.5,1040.6c-0.1,0-0.2,0-0.3,0.1C994.3,1040.7,994.4,1040.7,994.5,1040.6z M991.2,1041.2c0.1,0,0.2,0,0.3-0.1
	C991.5,1041.1,991.4,1041.2,991.2,1041.2z M1003.1,1039.1c-0.1,0-0.2,0-0.2,0C1003,1039.1,1003,1039.1,1003.1,1039.1z M997.2,1040.2
	h0.1H997.2z M988.6,1041.6c-0.1,0-0.1,0-0.2,0C988.5,1041.6,988.6,1041.6,988.6,1041.6z M1014.7,1175.3c-0.1,0-0.3,0.1-0.4,0.1
	C1014.5,1175.3,1014.6,1175.3,1014.7,1175.3z M1015.9,1175c-0.1,0-0.3,0.1-0.4,0.1C1015.6,1175.1,1015.7,1175,1015.9,1175z
	 M1013.6,1175.4c-0.1,0-0.3,0-0.4,0C1013.4,1175.5,1013.5,1175.4,1013.6,1175.4z M1016.6,1174.7c0.1,0,0.3-0.1,0.4-0.2
	C1016.9,1174.6,1016.7,1174.7,1016.6,1174.7z M1017.8,1174.3c0.1-0.1,0.3-0.1,0.4-0.2C1018,1174.1,1017.9,1174.2,1017.8,1174.3z
	 M974,1015.7l-32.5,9.7l66.5-19.9L974,1015.7l40.8-23.5L974,1015.7z M957.9,1041.3L957.9,1041.3L957.9,1041.3z M1008.5,1004.7
	c-0.1,0.2-0.3,0.4-0.3,0.5C1008.2,1005.2,1008.3,1005,1008.5,1004.7z M1034,1161.4c1.7-1.6,3.3-3.2,5-4.7
	C1037.3,1158.2,1035.6,1159.8,1034,1161.4z M1012.5,1175.5c-0.1,0-0.3,0-0.4,0C1012.3,1175.5,1012.4,1175.5,1012.5,1175.5z
	 M1011.4,1175.3c-0.1,0-0.2,0-0.3,0C1011.2,1175.3,1011.3,1175.3,1011.4,1175.3z M1164.5,1092.1c-0.1,0.1-0.2,0.1-0.3,0.2
	C1164.3,1092.2,1164.4,1092.1,1164.5,1092.1z M1022.8,981.2C1022.8,981.2,1022.7,981.3,1022.8,981.2
	C1022.7,981.3,1022.8,981.2,1022.8,981.2z M1016.9,1036C1016.9,1036,1017,1036,1016.9,1036C1017,1036,1016.9,1036,1016.9,1036z
	 M1020.8,984.4l0.1-0.1C1020.9,984.4,1020.8,984.4,1020.8,984.4z M1026.6,1033.3L1026.6,1033.3L1026.6,1033.3z M1014.2,1036.7
	C1014.3,1036.7,1014.3,1036.7,1014.2,1036.7C1014.3,1036.7,1014.3,1036.7,1014.2,1036.7z M1423.6,957.9c-0.1,0.1-0.2,0.2-0.3,0.3
	C1423.5,958.1,1423.5,958,1423.6,957.9z M1419.7,962.9c0,0.1-0.1,0.1-0.1,0.2C1419.6,963,1419.6,963,1419.7,962.9z M1425.3,955.7
	c0.1-0.1,0.2-0.2,0.3-0.4C1425.5,955.4,1425.4,955.6,1425.3,955.7z M1165.7,1091.4c-0.2,0.1-0.3,0.2-0.5,0.3
	C1165.3,1091.6,1165.5,1091.5,1165.7,1091.4z M1421.6,960.4c-0.1,0.1-0.1,0.2-0.2,0.3C1421.5,960.6,1421.6,960.5,1421.6,960.4z
	 M961.6,1042.6c0.1,0,0.1,0,0.2,0C961.7,1042.6,961.6,1042.6,961.6,1042.6z M977.9,1042.8c-0.1,0-0.2,0-0.3,0
	C977.7,1042.8,977.8,1042.8,977.9,1042.8z M985.9,1041.9c-0.1,0-0.1,0-0.2,0C985.8,1041.9,985.9,1041.9,985.9,1041.9z M963,1042.8
	c0.1,0,0.2,0,0.3,0C963.2,1042.9,963.1,1042.9,963,1042.8z M980.2,1042.6c0.1,0,0.3,0,0.4,0C980.4,1042.6,980.3,1042.6,980.2,1042.6
	z M973.1,1043.1c-0.1,0-0.2,0-0.3,0C972.9,1043.1,973,1043.1,973.1,1043.1z M983.3,1042.3c-0.1,0-0.3,0-0.4,0
	C983,1042.3,983.2,1042.3,983.3,1042.3z M975.4,1043h-0.1C975.3,1043,975.4,1043,975.4,1043z M966.5,1043.2
	C966.6,1043.2,966.6,1043.2,966.5,1043.2C966.6,1043.2,966.6,1043.2,966.5,1043.2z M964.7,1043.1c0.1,0,0.2,0,0.2,0
	C964.8,1043.1,964.7,1043.1,964.7,1043.1z M970.8,1043.2c-0.1,0-0.2,0-0.4,0C970.6,1043.2,970.7,1043.2,970.8,1043.2z M968.4,1043.2
	c0.1,0,0.2,0,0.2,0C968.5,1043.2,968.5,1043.2,968.4,1043.2z M1455.5,876.9c-0.2,1.3-0.4,2.7-0.6,4
	C1455.1,879.6,1455.3,878.2,1455.5,876.9z M1447,924L1447,924L1447,924L1447,924z M1431.3,947.7c0.1-0.1,0.1-0.2,0.2-0.3
	C1431.4,947.5,1431.4,947.6,1431.3,947.7z M1429.6,950.1c-0.1,0.1-0.2,0.2-0.3,0.3C1429.4,950.3,1429.5,950.2,1429.6,950.1z
	 M1427.6,952.7c-0.1,0.1-0.2,0.2-0.3,0.3C1427.4,952.9,1427.5,952.8,1427.6,952.7z M1435.2,942.3c0-0.1,0.1-0.1,0.1-0.2
	C1435.3,942.2,1435.3,942.2,1435.2,942.3z M1433.5,944.8c-0.1,0.1-0.1,0.2-0.2,0.3C1433.3,944.9,1433.4,944.8,1433.5,944.8z
	 M1437.2,939.4l-0.1,0.1C1437.1,939.5,1437.2,939.5,1437.2,939.4z M1448.5,921.1c0,0.1-0.1,0.1-0.1,0.2
	C1448.4,921.3,1448.4,921.2,1448.5,921.1z M1442.4,931.6C1442.4,931.6,1442.4,931.5,1442.4,931.6
	C1442.4,931.5,1442.4,931.6,1442.4,931.6z M1440.7,934.2C1440.7,934.2,1440.8,934.2,1440.7,934.2
	C1440.8,934.2,1440.7,934.2,1440.7,934.2z M1439,936.8L1439,936.8L1439,936.8z M1394.4,978.1c-0.1,0.2-0.2,0.3-0.3,0.5
	C1394.2,978.4,1394.3,978.2,1394.4,978.1z M1461.4,844.3C1461.4,844.3,1461.4,844.4,1461.4,844.3
	C1461.4,844.4,1461.4,844.3,1461.4,844.3z M1166.8,1090.8c-0.2,0.1-0.4,0.2-0.6,0.3C1166.4,1091,1166.6,1090.9,1166.8,1090.8z
	 M1388.1,987.7L1388.1,987.7L1388.1,987.7z M1396.2,975.3c-0.1,0.2-0.2,0.4-0.4,0.6C1396,975.7,1396.1,975.5,1396.2,975.3z
	 M1393.7,979.2c-0.1,0.1-0.2,0.2-0.2,0.4C1393.5,979.5,1393.6,979.4,1393.7,979.2z M1395.5,976.4c-0.1,0.1-0.1,0.2-0.2,0.3
	C1395.4,976.5,1395.5,976.4,1395.5,976.4z M1390,984.9c0.1-0.1,0.1-0.2,0.2-0.3C1390.1,984.7,1390,984.8,1390,984.9z M1389.2,986.1
	c-0.1,0.1-0.1,0.2-0.2,0.2C1389,986.3,1389.1,986.2,1389.2,986.1z M1390.9,983.5c0.1-0.1,0.2-0.3,0.3-0.4
	C1391.1,983.2,1391,983.4,1390.9,983.5z M1392.6,980.8c0.1-0.1,0.2-0.3,0.2-0.4C1392.8,980.6,1392.7,980.7,1392.6,980.8z
	 M1391.8,982.1c0.1-0.1,0.2-0.2,0.2-0.4C1391.9,981.9,1391.9,982,1391.8,982.1z M1456.2,872.8c0.1-0.7,0.2-1.3,0.3-2
	C1456.4,871.4,1456.3,872.1,1456.2,872.8z M1454.4,885c-0.2,1.3-0.3,2.6-0.5,3.8C1454,887.6,1454.2,886.3,1454.4,885z M1453.7,890.8
	c0.1-0.6,0.1-1.2,0.2-1.8C1453.8,889.6,1453.7,890.2,1453.7,890.8z M1456.2,872.8c-0.2,1.3-0.4,2.7-0.6,4.1
	C1455.7,875.5,1455.9,874.1,1456.2,872.8z M1453.7,890.9c-0.1,0.6-0.1,1.2-0.2,1.8C1453.5,892.1,1453.6,891.5,1453.7,890.9z
	 M1454.9,881c-0.2,1.3-0.4,2.6-0.5,3.9C1454.5,883.6,1454.7,882.3,1454.9,881z M1453,908c0,0.4-0.1,0.9-0.1,1.3
	C1452.9,908.9,1453,908.4,1453,908z M1452.9,903.8c0,0.4,0,0.9,0,1.3C1452.9,904.7,1452.9,904.3,1452.9,903.8z M1378.1,1002.2
	c-0.1,0.2-0.2,0.3-0.3,0.5C1377.9,1002.5,1378,1002.4,1378.1,1002.2z M1452.9,902.2c0,0.5,0,0.9,0,1.4
	C1452.9,903.2,1452.9,902.7,1452.9,902.2z M1452.9,905.3c0,0.4,0.1,0.8,0.1,1.2C1453,906.1,1452.9,905.7,1452.9,905.3z M1453,906.5
	c0,0.4,0,0.9,0,1.4C1453,907.4,1453,906.9,1453,906.5z M1457.8,862.9c0.2-1.2,0.4-2.4,0.6-3.5C1458.3,860.5,1458,861.7,1457.8,862.9
	z M1461,846.3c0,0.2-0.1,0.5-0.2,0.8C1460.9,846.8,1460.9,846.6,1461,846.3z M1460.8,847.2c-0.1,0.6-0.2,1.2-0.4,1.9
	C1460.6,848.4,1460.7,847.7,1460.8,847.2z M1461,846.2c0-0.2,0.1-0.4,0.1-0.6C1461.1,845.8,1461,846,1461,846.2z M1459.9,851.5
	c0.2-0.8,0.3-1.6,0.5-2.4C1460.3,849.9,1460.1,850.7,1459.9,851.5z M1457.2,866.8c-0.2,1.3-0.4,2.6-0.7,3.9
	C1456.7,869.4,1456.9,868.1,1457.2,866.8z M1453,898.7c0-0.6,0.1-1.2,0.1-1.8C1453.1,897.5,1453,898.1,1453,898.7z M1457.2,866.7
	c0.2-1.3,0.4-2.5,0.6-3.7C1457.6,864.2,1457.4,865.5,1457.2,866.7z M1461.2,845c0.1-0.3,0.1-0.5,0.1-0.6
	C1461.3,844.5,1461.3,844.7,1461.2,845z M1459.9,851.7c-0.2,0.9-0.3,1.8-0.5,2.8C1459.6,853.4,1459.8,852.5,1459.9,851.7z
	 M1458.5,859.4c0.2-1.2,0.4-2.3,0.6-3.3C1458.9,857.1,1458.7,858.2,1458.5,859.4z M1459.1,856c0.1-0.5,0.2-1,0.3-1.5
	C1459.3,855,1459.2,855.5,1459.1,856z M1461.1,845.6c0-0.2,0.1-0.3,0.1-0.5C1461.2,845.3,1461.2,845.4,1461.1,845.6z M1368.7,1014
	c-0.1,0.1-0.3,0.3-0.4,0.4C1368.5,1014.3,1368.6,1014.2,1368.7,1014z M1367.3,1015.3c-0.1,0.1-0.2,0.2-0.4,0.3
	C1367.1,1015.5,1367.2,1015.4,1367.3,1015.3z M1364.8,1015.7L1364.8,1015.7L1364.8,1015.7z M1368.7,1003
	C1368.7,1003,1368.8,1003,1368.7,1003C1368.8,1003,1368.7,1003,1368.7,1003z M1364.8,1012.2L1364.8,1012.2L1364.8,1012.2z
	 M1368,1014.7c-0.1,0.1-0.3,0.2-0.4,0.3C1367.7,1015,1367.9,1014.9,1368,1014.7z M1367.6,1005.2L1367.6,1005.2L1367.6,1005.2z
	 M1368.6,1003.3L1368.6,1003.3L1368.6,1003.3z M1366.3,1008L1366.3,1008L1366.3,1008z M1365.8,1016.1c0.1,0,0.3,0,0.4-0.1
	C1366.1,1016.1,1366,1016.1,1365.8,1016.1z M1366.4,1015.9c0.1-0.1,0.2-0.1,0.3-0.2C1366.6,1015.8,1366.5,1015.9,1366.4,1015.9z
	 M1365.1,1011.2L1365.1,1011.2L1365.1,1011.2z M1171.3,1088.6c-0.3,0.2-0.7,0.3-1,0.5C1170.7,1088.9,1171,1088.7,1171.3,1088.6z
	 M1171.7,1088.4c0.3-0.2,0.7-0.3,1.1-0.5C1172.4,1088.1,1172,1088.3,1171.7,1088.4z M1167.4,1090.5c0.2-0.1,0.4-0.2,0.7-0.3
	C1167.8,1090.3,1167.6,1090.4,1167.4,1090.5z M1181.8,1084c-1.7,0.7-3.4,1.4-4.9,2.1C1178.5,1085.4,1180.1,1084.7,1181.8,1084z
	 M1170,1089.2c-0.6,0.3-1.2,0.6-1.8,0.9C1168.9,1089.8,1169.4,1089.5,1170,1089.2z M1364.6,1015.3L1364.6,1015.3L1364.6,1015.3
	L1364.6,1015.3z M1365.3,1016C1365.4,1016.1,1365.4,1016.1,1365.3,1016C1365.4,1016.1,1365.4,1016.1,1365.3,1016z M1184.3,1083
	c-0.8,0.3-1.7,0.7-2.5,1C1182.7,1083.7,1183.5,1083.3,1184.3,1083z M1364.4,1014.7C1364.5,1014.7,1364.5,1014.7,1364.4,1014.7
	C1364.5,1014.7,1364.5,1014.7,1364.4,1014.7z M1365.1,1015.9C1365,1015.9,1365,1015.9,1365.1,1015.9
	C1365,1015.9,1365,1015.9,1365.1,1015.9z M1357.4,1019.5l-24.8-14.3c-0.1,0.1-0.1,0.2-0.2,0.2l24.6,14.2L1357.4,1019.5
	L1357.4,1019.5z M1362.6,974.8c0.3-0.1,0.5-0.3,0.8-0.4C1363.2,974.6,1362.9,974.7,1362.6,974.8z M1371.6,968.6
	c0.2-0.2,0.4-0.3,0.5-0.4C1372,968.3,1371.8,968.5,1371.6,968.6z M1372.2,968.1c0.2-0.1,0.3-0.3,0.5-0.4
	C1372.5,967.8,1372.4,968,1372.2,968.1z M1371.5,968.7c-0.2,0.2-0.4,0.3-0.6,0.5C1371.1,969,1371.3,968.9,1371.5,968.7z
	 M1372.7,967.7c0.2-0.1,0.3-0.3,0.4-0.4C1373,967.4,1372.9,967.5,1372.7,967.7z M1373.6,966.9c-0.1,0.1-0.2,0.2-0.4,0.4
	C1373.4,967.1,1373.5,967,1373.6,966.9z M1370.9,969.3c-0.2,0.2-0.4,0.3-0.6,0.5C1370.5,969.6,1370.7,969.4,1370.9,969.3z
	 M1376.4,1004.5l-0.1,0.1C1376.4,1004.6,1376.4,1004.5,1376.4,1004.5z M1382.7,995.6c-0.1,0.1-0.1,0.2-0.2,0.3l0,0
	C1382.6,995.8,1382.7,995.7,1382.7,995.6z M1369.5,970.3c0.2-0.2,0.4-0.3,0.6-0.5C1370,970,1369.8,970.2,1369.5,970.3z
	 M1369.4,970.4c-0.2,0.2-0.4,0.3-0.7,0.5C1369,970.7,1369.2,970.6,1369.4,970.4z M1373.7,966.8c0.1-0.1,0.2-0.2,0.3-0.3
	C1373.9,966.6,1373.8,966.7,1373.7,966.8z M1374.9,1006.5c-0.1,0.1-0.1,0.2-0.2,0.3C1374.8,1006.7,1374.9,1006.6,1374.9,1006.5z
	 M1365.4,973.3c0.3-0.2,0.5-0.3,0.8-0.5C1365.9,972.9,1365.7,973.1,1365.4,973.3z M1363.6,974.3c0.3-0.1,0.5-0.3,0.8-0.5
	C1364.1,974,1363.8,974.2,1363.6,974.3z M1364.5,973.8c0.3-0.2,0.5-0.3,0.8-0.5C1365,973.5,1364.8,973.6,1364.5,973.8z
	 M1361.7,975.3c0.3-0.1,0.6-0.3,0.8-0.4C1362.2,975,1361.9,975.2,1361.7,975.3z M1379.3,1000.6c0.1-0.1,0.2-0.3,0.3-0.4
	C1379.5,1000.3,1379.4,1000.4,1379.3,1000.6z M1366.3,972.7c0.3-0.2,0.5-0.3,0.7-0.5C1366.8,972.3,1366.5,972.5,1366.3,972.7z
	 M1374.6,965.9c-0.1,0.1-0.3,0.3-0.6,0.5C1374.2,966.3,1374.4,966.1,1374.6,965.9z M1368,971.5c0.2-0.2,0.5-0.3,0.7-0.5
	C1368.4,971.2,1368.2,971.3,1368,971.5z M1374.6,965.9c0.1-0.1,0.2-0.2,0.2-0.2C1374.8,965.7,1374.7,965.8,1374.6,965.9z
	 M1367.2,972.1c0.2-0.2,0.5-0.3,0.7-0.5C1367.6,971.8,1367.4,971.9,1367.2,972.1z M1394.8,977.5c0.1-0.1,0.2-0.3,0.3-0.4
	C1394.9,977.3,1394.9,977.4,1394.8,977.5z M874.4,714.9c-0.3,0-0.5,0-0.8-0.1C873.9,714.9,874.1,714.9,874.4,714.9z M872.4,714.8
	c-0.3,0-0.5,0-0.8,0C871.9,714.8,872.2,714.8,872.4,714.8z M876.2,715.1c-0.2,0-0.5-0.1-0.7-0.1C875.7,715,875.9,715,876.2,715.1z
	 M1135.1,853.1L1135.1,853.1L1135.1,853.1z M870.3,714.8c-0.2,0-0.5,0-0.7,0C869.8,714.8,870.1,714.8,870.3,714.8z M880.2,715.8
	c0.2,0.1,0.4,0.1,0.6,0.2C880.6,715.9,880.4,715.9,880.2,715.8z M881.5,716.2c0.2,0.1,0.3,0.1,0.5,0.2
	C881.9,716.4,881.7,716.3,881.5,716.2z M1044.5,1151.9c-0.5,0.4-1.1,0.9-1.6,1.3C1043.4,1152.8,1043.9,1152.3,1044.5,1151.9z
	 M878.7,715.5c0.2,0,0.4,0.1,0.6,0.1C879.1,715.6,878.9,715.5,878.7,715.5z M877.1,715.2c0.2,0,0.5,0.1,0.7,0.1
	C877.6,715.3,877.4,715.2,877.1,715.2z M1149.2,854.1l-0.1-195.5l0,0L1149.2,854.1L1149.2,854.1z M1452.9,902c0-0.5,0-1,0-1.6
	C1452.9,901,1452.9,901.5,1452.9,902z M1370.5,1012.1c-0.2,0.2-0.4,0.4-0.5,0.6C1370.1,1012.6,1370.3,1012.3,1370.5,1012.1z
	 M1369.1,1013.7c0.2-0.2,0.3-0.3,0.5-0.5C1369.4,1013.3,1369.2,1013.5,1369.1,1013.7z M1370.8,1011.7L1370.8,1011.7L1370.8,1011.7
	L1370.8,1011.7z M1373.6,1008.2c-0.1,0.2-0.2,0.3-0.3,0.4C1373.4,1008.5,1373.5,1008.4,1373.6,1008.2z M1041.1,1154.8
	c0.6-0.5,1.2-1,1.8-1.5C1042.2,1153.7,1041.6,1154.2,1041.1,1154.8z M884.3,717.4c-0.1-0.1-0.3-0.1-0.4-0.2
	C884.1,717.3,884.2,717.4,884.3,717.4z M1452.8,909.7c-0.1,0.4-0.2,0.8-0.3,1.2C1452.6,910.5,1452.7,910.1,1452.8,909.7z
	 M1450.7,916.3c0,0,0-0.1,0.1-0.1C1450.8,916.2,1450.8,916.2,1450.7,916.3z M1372.3,1009.9c-0.1,0.1-0.2,0.3-0.3,0.4
	C1372.1,1010.2,1372.2,1010,1372.3,1009.9z M1452.4,911.7c-0.1,0.4-0.2,0.7-0.3,1.1C1452.2,912.4,1452.3,912,1452.4,911.7z
	 M1451.7,913.7L1451.7,913.7c0,0.1,0,0.1-0.1,0.2l0,0l16.7,9.7l0.2-0.1l27.5,15.9l0,0L1451.7,913.7z M883.2,716.9
	c-0.1-0.1-0.3-0.1-0.5-0.2C882.9,716.8,883.1,716.8,883.2,716.9z M891.9,727.9C891.9,727.9,891.9,728,891.9,727.9
	C891.9,728,891.9,727.9,891.9,727.9z M891.9,728.3c0,0.1,0,0.1,0,0.2C891.9,728.4,891.9,728.4,891.9,728.3z M891.7,727v0.1V727z
	 M891.9,728.8c0-0.1,0-0.1,0-0.2C891.9,728.7,891.9,728.7,891.9,728.8z M891.8,727.6v-0.1C891.8,727.5,891.8,727.5,891.8,727.6z
	 M891.6,726.6c0-0.1,0-0.1,0-0.2C891.6,726.5,891.6,726.5,891.6,726.6z M941.1,633L910,651l49.1-28.4c23.6,1.2,24.5,14.1,24.5,14.1
	V685l165.5,95.7L1042.2,719V596.9l-32-18.5l-69.2,40L941.1,633z M974.4,1130.7c-2.2,0.1-4.4,0.2-6.7,0.3
	C970,1130.9,972.2,1130.8,974.4,1130.7z M107.4,1099.7L107.4,1099.7L107.4,1099.7L107.4,1099.7L107.4,1099.7L325.1,974L107.4,1099.7
	L107.4,1099.7L107.4,1099.7z M974.5,1130.7c4.3-0.2,8.5-0.4,12.3-0.6C983,1130.3,978.8,1130.5,974.5,1130.7z M909.9,736.2V651v67.6
	V736.2z M887,719.2L887,719.2L887,719.2z M888.5,720.6L888.5,720.6L888.5,720.6z M889.7,722.1c0-0.1-0.1-0.1-0.1-0.2
	C889.6,722,889.7,722.1,889.7,722.1z M889.2,721.4c0-0.1-0.1-0.1-0.1-0.2C889.1,721.3,889.1,721.3,889.2,721.4z M885,717.8
	c0.1,0.1,0.2,0.1,0.3,0.2C885.2,717.9,885.1,717.9,885,717.8z M886.2,718.6c-0.1-0.1-0.2-0.1-0.2-0.2
	C886.1,718.5,886.2,718.5,886.2,718.6z M890,722.6c0,0.1,0.1,0.1,0.1,0.2C890.1,722.8,890.1,722.7,890,722.6z M891,724.6
	c0,0.1,0.1,0.1,0.1,0.2C891.1,724.8,891.1,724.7,891,724.6z M891.3,725.3c0,0.1,0,0.1,0.1,0.2C891.3,725.4,891.3,725.3,891.3,725.3z
	 M891.5,726c0-0.1,0-0.1-0.1-0.2C891.5,725.9,891.5,726,891.5,726z M890.5,723.5c0-0.1-0.1-0.1-0.1-0.2
	C890.5,723.4,890.5,723.4,890.5,723.5z M890.8,724.2c0-0.1-0.1-0.1-0.1-0.2C890.8,724,890.8,724.1,890.8,724.2z M1449.7,918.6
	c0,0.1-0.1,0.1-0.1,0.2C1449.7,918.7,1449.7,918.6,1449.7,918.6z M1097.1,953.3c0.1-0.2,0.2-0.4,0.4-0.6
	C1097.4,952.9,1097.2,953.1,1097.1,953.3z M1100.1,947.9c-0.1,0.2-0.2,0.4-0.3,0.6C1099.9,948.3,1100,948.1,1100.1,947.9z
	 M1098.8,950.2c-0.1,0.2-0.2,0.4-0.4,0.7C1098.6,950.7,1098.7,950.5,1098.8,950.2z M1094.3,958L1094.3,958L1094.3,958z
	 M1095.7,955.7c0.1-0.2,0.2-0.3,0.3-0.5C1095.9,955.3,1095.8,955.5,1095.7,955.7z M1112,920.7l14.4-8.3l0,0
	c-3.2-2.1-6.6-4.3-10.1-6.6C1116.4,905.8,1115.2,911.6,1112,920.7z M1104.1,939.9c-0.1,0.2-0.2,0.3-0.2,0.5
	C1104,940.2,1104,940.1,1104.1,939.9z M1105.6,936.8c0,0.1-0.1,0.2-0.1,0.3C1105.5,937,1105.5,936.9,1105.6,936.8z M1089.4,965.7
	C1089.3,965.7,1089.3,965.7,1089.4,965.7C1089.3,965.7,1089.3,965.7,1089.4,965.7z M1137.4,919.2c-0.1,0-0.1-0.1-0.2-0.1
	C1137.3,919.1,1137.3,919.2,1137.4,919.2z M1101.1,946c0.1-0.1,0.1-0.2,0.2-0.3C1101.2,945.7,1101.2,945.8,1101.1,946z
	 M1106.7,934.2c0-0.1,0.1-0.2,0.1-0.3C1106.8,934,1106.8,934.1,1106.7,934.2z M1453.1,896.7c0-0.6,0.1-1.2,0.1-1.8
	C1453.2,895.5,1453.2,896.1,1453.1,896.7z M1453.5,892.7L1453.5,892.7l36.3,21L1453.5,892.7z M1453,898.7c0,0.6-0.1,1.2-0.1,1.7
	C1452.9,899.9,1453,899.3,1453,898.7z M1205.5,866.6L1205.5,866.6L1205.5,866.6L1205.5,866.6z M1087.6,968.2c0,0.1-0.1,0.1-0.1,0.2
	C1087.5,968.3,1087.6,968.3,1087.6,968.2z M1453.5,892.7c-0.1,0.7-0.1,1.3-0.2,2C1453.3,894.1,1453.4,893.4,1453.5,892.7z
	 M1145.3,924l-0.1-0.1C1145.2,923.9,1145.3,923.9,1145.3,924z M1039.2,1156.4c0.6-0.5,1.2-1.1,1.7-1.6c-0.7,0.6-1.4,1.2-2,1.8
	l40.3,23.3l0.3-0.2L1039.2,1156.4z M1149.6,926.4c0,0,0.1,0,0.1,0.1C1149.7,926.5,1149.6,926.5,1149.6,926.4z M1152,854.5
	L1152,854.5L1152,854.5z M1210.5,868.2c0.1,0,0.1,0,0.2,0.1C1210.6,868.2,1210.5,868.2,1210.5,868.2z M1085.6,970.9
	c0-0.1,0.1-0.1,0.1-0.2C1085.7,970.8,1085.7,970.9,1085.6,970.9z M956.3,1157.9c-0.5-0.1-0.9-0.2-1.4-0.2
	C955.4,1157.7,955.9,1157.8,956.3,1157.9z M953.5,1157.4c0.4,0.1,0.7,0.1,1.1,0.2C954.2,1157.5,953.9,1157.5,953.5,1157.4z
	 M949.2,1156.9c-0.3,0-0.6,0-0.9-0.1C948.7,1156.8,948.9,1156.8,949.2,1156.9z M950.5,1157c-0.4,0-0.7-0.1-1-0.1
	C949.8,1156.9,950.1,1157,950.5,1157z M950.7,1157c0.3,0,0.7,0.1,1,0.1C951.4,1157.1,951,1157.1,950.7,1157z M953.2,1157.4
	c-0.4-0.1-0.8-0.1-1.2-0.2C952.4,1157.2,952.8,1157.3,953.2,1157.4z M963.5,1159.3c-0.4-0.1-0.8-0.2-1.2-0.2
	C962.8,1159.1,963.1,1159.2,963.5,1159.3z M964.3,1159.4c0.3,0.1,0.7,0.1,1,0.2C965,1159.6,964.7,1159.5,964.3,1159.4z
	 M958.3,1158.2c0.5,0.1,1,0.2,1.5,0.3C959.3,1158.4,958.8,1158.3,958.3,1158.2z M960.4,1158.6c0.4,0.1,0.8,0.2,1.2,0.2
	C961.2,1158.8,960.8,1158.7,960.4,1158.6z M958,1158.2c-0.4-0.1-0.8-0.2-1.2-0.2C957.1,1158,957.6,1158.1,958,1158.2z
	 M1003.5,1129.2c0.5,0,0.8,0,1.1-0.1C1004.3,1129.2,1003.9,1129.2,1003.5,1129.2z M942.2,1018.7l-27.6,15.9l-30.5,17.6L942.2,1018.7
	z M1034.1,1030.7L1034.1,1030.7L1034.1,1030.7z M1110.2,925.7c0-0.1,0-0.1,0.1-0.2C1110.2,925.6,1110.2,925.7,1110.2,925.7z
	 M1129.2,853.1C1129.2,853.1,1129.1,853.1,1129.2,853.1C1129.1,853.1,1129.2,853.1,1129.2,853.1z M1110.4,1047.6l-103.5,80l-2,1.6
	l106.2-82.1L1110.4,1047.6z M1108.1,930.9c0,0.1-0.1,0.2-0.1,0.3C1108,931.1,1108.1,931,1108.1,930.9z M966.9,1159.9
	c0.2,0,0.3,0.1,0.5,0.1C967.2,1160,967,1160,966.9,1159.9z M1001.3,1129.3c-0.3,0-0.6,0-0.9,0
	C1000.8,1129.4,1001.1,1129.4,1001.3,1129.3z M998.4,1129.5c0.3,0,0.7,0,1-0.1C999.1,1129.5,998.8,1129.5,998.4,1129.5z
	 M1004.8,1129.2C1004.9,1129.2,1004.9,1129.2,1004.8,1129.2C1004.9,1129.2,1004.9,1129.2,1004.8,1129.2z M1302.1,825
	c0.2-0.3,0.5-0.7,0.8-1C1302.6,824.3,1302.3,824.7,1302.1,825z M1344.1,1007.9c0,0.1-0.1,0.2-0.1,0.3
	C1344,1008.1,1344,1008,1344.1,1007.9z M1344.6,1007c0,0.1-0.1,0.2-0.1,0.2C1344.5,1007.1,1344.5,1007.1,1344.6,1007z
	 M1344.2,1007.7c0-0.1,0.1-0.2,0.1-0.3C1344.3,1007.5,1344.2,1007.6,1344.2,1007.7z M1345,1006.2c0-0.1,0.1-0.1,0.2-0.2
	C1345.1,1006.1,1345.1,1006.2,1345,1006.2z M1344.7,1006.7c0-0.1,0.1-0.2,0.2-0.2C1344.8,1006.6,1344.8,1006.7,1344.7,1006.7z
	 M1345.4,1005.7l0.1-0.1C1345.5,1005.6,1345.5,1005.7,1345.4,1005.7z M1354.8,977.2c0.3,0,0.6,0,0.9-0.1
	C1355.4,977.1,1355.1,977.2,1354.8,977.2z M1355.8,977.1c0.3,0,0.6-0.1,0.9-0.1C1356.4,977,1356.1,977.1,1355.8,977.1z
	 M1359.7,976.1c0.3-0.1,0.6-0.2,0.8-0.3C1360.3,975.9,1360,976,1359.7,976.1z M1360.7,975.7c0.3-0.1,0.6-0.2,0.8-0.4
	C1361.2,975.5,1361,975.6,1360.7,975.7z M1343.9,1008.7c0-0.1,0-0.2,0.1-0.3C1343.9,1008.5,1343.9,1008.6,1343.9,1008.7z
	 M1338.1,1006.4c-0.1,0-0.2,0.1-0.2,0.1C1338,1006.5,1338,1006.5,1338.1,1006.4z M1342,1004.7
	C1342,1004.7,1342.1,1004.7,1342,1004.7C1342.1,1004.7,1342,1004.7,1342,1004.7z M1343.3,1004c-0.1,0-0.1,0.1-0.2,0.1
	C1343.2,1004.1,1343.3,1004.1,1343.3,1004z M1339.7,1005.8c0.1,0,0.1-0.1,0.2-0.1C1339.8,1005.7,1339.8,1005.8,1339.7,1005.8z
	 M1344.4,1003.5c0.1,0,0.1-0.1,0.2-0.1C1344.5,1003.4,1344.4,1003.5,1344.4,1003.5z M1335.5,1006.8
	C1335.5,1006.8,1335.5,1006.7,1335.5,1006.8C1335.5,1006.7,1335.5,1006.8,1335.5,1006.8z M1337.3,1006.7c-0.1,0-0.1,0-0.2,0.1
	C1337.2,1006.8,1337.3,1006.7,1337.3,1006.7z M1336.1,1007h-0.1C1336,1007,1336,1007,1336.1,1007z M1345.7,1002.8L1345.7,1002.8
	L1345.7,1002.8z M1338.7,1006.2c0.1,0,0.2-0.1,0.3-0.1C1338.9,1006.1,1338.8,1006.2,1338.7,1006.2z M1335.7,1006.9L1335.7,1006.9
	L1335.7,1006.9z M1343.8,1009.3c0-0.1,0-0.3,0-0.4C1343.8,1009,1343.8,1009.1,1343.8,1009.3z M1357.6,976.8
	c-0.3,0.1-0.6,0.1-0.9,0.2C1357,976.9,1357.3,976.8,1357.6,976.8z M1406,900.2L1406,900.2l-0.5,14.1l0.8-21.5L1406,900.2z
	 M1405.2,871.4L1405.2,871.4L1405.2,871.4L1405.2,871.4z M1380.8,932.6c0.1-0.1,0.1-0.2,0.2-0.3
	C1381,932.4,1380.9,932.5,1380.8,932.6z M1405.9,863.2c0-0.1,0-0.3,0-0.5C1405.9,862.9,1405.9,863.1,1405.9,863.2z M1379.8,934.4
	c-0.1,0.1-0.2,0.2-0.2,0.4C1379.6,934.6,1379.7,934.5,1379.8,934.4z M1382.2,930.2c-0.1,0.1-0.1,0.2-0.2,0.3
	C1382.1,930.5,1382.2,930.4,1382.2,930.2z M1382.8,838.3c0.7,0,1.3,0,2,0.1C1384.1,838.3,1383.5,838.3,1382.8,838.3z M1405.3,855.6
	c0,0.3,0.1,0.5,0.1,0.7C1405.4,856.1,1405.3,855.8,1405.3,855.6z M1394.2,840.3c-1.2-0.5-2.4-0.8-3.6-1.1
	C1391.8,839.4,1393,839.8,1394.2,840.3z M1405.7,858.8c0-0.3-0.1-0.5-0.1-0.8C1405.7,858.3,1405.7,858.5,1405.7,858.8z
	 M1358.6,976.5c-0.3,0.1-0.6,0.2-0.9,0.2C1358,976.7,1358.3,976.6,1358.6,976.5z M1405.8,860.4c0,0.2,0,0.5,0,0.7
	C1405.9,860.9,1405.9,860.6,1405.8,860.4z M1372.5,787.9c-0.2,0-0.5-0.1-0.7-0.1s-0.4,0-0.6-0.1
	C1371.6,787.8,1372,787.9,1372.5,787.9z M1351.2,976.7c-0.3-0.1-0.6-0.2-0.9-0.3C1350.6,976.5,1350.9,976.6,1351.2,976.7z
	 M1352.9,977.1c0.3,0,0.6,0.1,0.9,0.1C1353.5,977.1,1353.2,977.1,1352.9,977.1z M1354.7,977.2c-0.3,0-0.6,0-0.9,0
	C1354.1,977.2,1354.4,977.2,1354.7,977.2z M1358.7,976.4c0.3-0.1,0.6-0.2,0.8-0.3C1359.3,976.3,1359,976.4,1358.7,976.4z
	 M1351.2,976.7c0.5,0.2,1.1,0.3,1.7,0.4c-0.3,0-0.6-0.1-0.9-0.2C1351.7,976.8,1351.5,976.8,1351.2,976.7z M1348.7,976
	c0.2,0,0.3,0.1,0.5,0.1C1349,976,1348.8,976,1348.7,976z M1384.9,925.6c0-0.1,0.1-0.2,0.1-0.2C1385,925.5,1384.9,925.5,1384.9,925.6
	z M1386.1,923.4c0.1-0.2,0.2-0.4,0.4-0.7C1386.4,922.9,1386.3,923.1,1386.1,923.4z M1387.6,920.7c1-1.9,2.1-3.7,3.1-5.6
	C1389.7,916.9,1388.7,918.8,1387.6,920.7z M1350,976.3c-0.2-0.1-0.4-0.1-0.6-0.2C1349.7,976.2,1349.9,976.2,1350,976.3z
	 M1383.4,928.2c0.1-0.2,0.2-0.3,0.3-0.5C1383.6,927.9,1383.5,928.1,1383.4,928.2z M1193.5,1079.3c0.9-0.3,1.7-0.7,2.6-1
	C1195.3,1078.7,1194.4,1079,1193.5,1079.3z M1199.3,1077.1c-1,0.4-2,0.8-3,1.2c1.9-0.7,3.9-1.5,5.9-2.2
	C1201.2,1076.4,1200.2,1076.8,1199.3,1077.1z M1192.9,1079.6c-0.7,0.3-1.4,0.6-2.2,0.8C1191.4,1080.1,1192.2,1079.9,1192.9,1079.6z
	 M1300.8,1034.6l0.1-0.1C1300.9,1034.6,1300.8,1034.6,1300.8,1034.6z M1298.1,1036.4C1298.2,1036.4,1298.2,1036.4,1298.1,1036.4
	C1298.2,1036.4,1298.2,1036.4,1298.1,1036.4z M1275.2,1049.6c-0.1,0-0.2,0.1-0.2,0.1C1275.1,1049.7,1275.1,1049.7,1275.2,1049.6z
	 M1272.1,1050.9c-0.1,0.1-0.3,0.1-0.4,0.2C1271.8,1051,1271.9,1050.9,1272.1,1050.9z M1187.5,1081.7c0.9-0.3,1.7-0.7,2.6-1
	C1189.2,1081,1188.3,1081.4,1187.5,1081.7z M1273.2,1050.4c-0.1,0-0.2,0.1-0.3,0.1C1273,1050.5,1273.1,1050.5,1273.2,1050.4z
	 M1303.3,1032.9l0.1-0.1C1303.4,1032.8,1303.3,1032.8,1303.3,1032.9z M1275.7,1049.5c0.1,0,0.1-0.1,0.2-0.1
	C1275.8,1049.4,1275.7,1049.4,1275.7,1049.5z M1274.4,1050c-0.1,0-0.2,0.1-0.2,0.1C1274.2,1050,1274.3,1050,1274.4,1050z
	 M1203.8,960.7c-0.1,0.1-0.2,0.1-0.3,0.2C1203.5,960.8,1203.7,960.8,1203.8,960.7z M1336.2,1005.2c0,0.1-0.1,0.1-0.1,0.2
	C1336.1,1005.3,1336.2,1005.2,1336.2,1005.2z M1198.3,963.8c-0.1,0.1-0.3,0.1-0.4,0.2C1198.1,964,1198.2,963.9,1198.3,963.8z
	 M1305.8,1031l-0.1,0.1C1305.7,1031.1,1305.8,1031.1,1305.8,1031z M1191.8,967.4c0.1-0.1,0.2-0.1,0.3-0.1
	C1192,967.3,1191.9,967.4,1191.8,967.4z M1194.9,965.8c0.1-0.1,0.2-0.1,0.3-0.2C1195.1,965.6,1195,965.7,1194.9,965.8z
	 M1308.1,1029.3C1308.1,1029.4,1308,1029.4,1308.1,1029.3C1308,1029.4,1308.1,1029.4,1308.1,1029.3z M1323.7,1015.6
	C1323.6,1015.6,1323.6,1015.6,1323.7,1015.6C1323.6,1015.6,1323.6,1015.6,1323.7,1015.6z M1214.6,954.2L1214.6,954.2L1214.6,954.2z
	 M1210.8,956.5l-0.1,0.1C1210.7,956.6,1210.7,956.6,1210.8,956.5z M1208.5,957.9L1208.5,957.9L1208.5,957.9z M1206.1,959.3
	C1206.1,959.3,1206.2,959.3,1206.1,959.3C1206.2,959.3,1206.1,959.3,1206.1,959.3z M1324.9,1014.3
	C1324.9,1014.3,1324.8,1014.3,1324.9,1014.3C1324.8,1014.3,1324.9,1014.3,1324.9,1014.3z M1287.1,1043.3L1287.1,1043.3
	L1287.1,1043.3z M1326,1013.1L1326,1013.1l6.4,3.7L1326,1013.1L1326,1013.1z M1293.2,1039.6c0.1-0.1,0.3-0.2,0.4-0.3
	C1293.4,1039.4,1293.3,1039.5,1293.2,1039.6z M1270.3,1051.5c0.2-0.1,0.3-0.1,0.5-0.2C1270.6,1051.4,1270.4,1051.5,1270.3,1051.5z
	 M1284.8,1044.5L1284.8,1044.5L1284.8,1044.5z M1336.8,1004.4c-0.1,0.1-0.1,0.1-0.2,0.2C1336.7,1004.6,1336.7,1004.5,1336.8,1004.4z
	 M1338.5,1002.6c-0.1,0.1-0.1,0.1-0.2,0.2C1338.4,1002.7,1338.5,1002.6,1338.5,1002.6z M1331.8,1006.1L1331.8,1006.1L1331.8,1006.1z
	 M1339.3,1001.8c0.1,0,0.1-0.1,0.2-0.1C1339.4,1001.7,1339.4,1001.7,1339.3,1001.8z M1345.9,967.1L1345.9,967.1
	c-17.9-9.1-32.9-14.6-45.6-17.6C1313,952.5,1328,958,1345.9,967.1z M1332.4,1016.8l-37,21.4l0,0l0,0L1332.4,1016.8z M1262.9,1054.2
	c0.3-0.1,0.6-0.2,0.9-0.3C1263.5,1054,1263.2,1054.1,1262.9,1054.2z M1262,1054.5c-9.8,3.5-23.4,8.2-37.6,13.4
	C1238.6,1062.7,1252.2,1058,1262,1054.5z M1264.8,1053.5c0.3-0.1,0.5-0.2,0.8-0.3C1265.3,1053.3,1265,1053.4,1264.8,1053.5z
	 M1268.8,1052.1c0.1,0,0.2-0.1,0.4-0.1C1269,1052,1268.9,1052,1268.8,1052.1z M1267.3,1052.6c-0.2,0.1-0.5,0.2-0.7,0.3
	C1266.8,1052.8,1267.1,1052.7,1267.3,1052.6z M1214.9,1071.3c3.1-1.1,6.3-2.3,9.4-3.4C1221.2,1069,1218.1,1070.1,1214.9,1071.3z
	 M1205.5,1074.8c2-0.8,4.1-1.5,6.1-2.3C1209.6,1073.3,1207.5,1074,1205.5,1074.8z M1202.5,1075.9c0.9-0.3,1.8-0.7,2.7-1
	C1204.3,1075.2,1203.4,1075.5,1202.5,1075.9z M1277.7,1048.4l-64.1,37L1277.7,1048.4L1277.7,1048.4z M1214.7,1071.4
	c-1,0.4-2,0.7-3,1.1C1212.7,1072.1,1213.7,1071.7,1214.7,1071.4z M1331.4,796.2c-0.3,0.2-0.7,0.4-1,0.7
	C1330.7,796.6,1331,796.4,1331.4,796.2z M1259.6,762.6c0-0.1,0-0.3,0-0.4C1259.6,762.3,1259.6,762.4,1259.6,762.6z M1216.1,948.4
	C1216.1,948.4,1216.2,948.4,1216.1,948.4C1216.2,948.4,1216.1,948.4,1216.1,948.4z M1370.1,787.6c-0.3,0-0.5-0.1-0.8-0.1
	C1369.6,787.6,1369.9,787.6,1370.1,787.6z M1226.7,873.6L1226.7,873.6L1226.7,873.6L1226.7,873.6z M1221.7,948.1L1221.7,948.1
	L1221.7,948.1z M1172.7,938.3L1172.7,938.3L1172.7,938.3L1172.7,938.3z M1038.5,1029.6c-0.1,0-0.3,0.1-0.4,0.1
	C1038.2,1029.6,1038.4,1029.6,1038.5,1029.6z M1037.1,1029.8c-0.1,0-0.3,0-0.4,0.1C1036.9,1029.8,1037,1029.8,1037.1,1029.8z
	 M1036.8,1029.4L1036.8,1029.4L1036.8,1029.4z M1039.2,1014.2c0.9-0.6,1.9-1.2,2.8-1.8C1041.1,1013,1040.1,1013.6,1039.2,1014.2z
	 M1039.2,1027.5c-0.1,0.1-0.1,0.2-0.2,0.3C1039.1,1027.7,1039.1,1027.6,1039.2,1027.5z M1038.8,1028l-0.1,0.1
	C1038.7,1028.1,1038.8,1028,1038.8,1028z M1277,783.6c0,0.6,0.1,1.3,0.1,2C1277.1,784.9,1277.1,784.3,1277,783.6z M1281.6,830.1
	c-0.2-1.3-0.4-2.6-0.6-4C1281.2,827.5,1281.4,828.8,1281.6,830.1z M1282.4,834.7c-0.3-1.4-0.6-3-0.8-4.6
	C1281.9,831.8,1282.2,833.3,1282.4,834.7z M1282.4,834.8c0.2,1.1,0.4,2,0.6,2.9C1282.9,836.8,1282.7,835.8,1282.4,834.8z
	 M1278.7,778.6l1.2-10.7l0,0L1278.7,778.6z M1259.2,770.9c0-0.1,0-0.2,0-0.4C1259.2,770.7,1259.2,770.8,1259.2,770.9z M1259.9,758.7
	C1259.8,758.8,1259.8,758.8,1259.9,758.7C1259.8,758.8,1259.8,758.8,1259.9,758.7l-21.3-15.8L1259.9,758.7z M1259.4,767.5
	c0,0.1,0,0.2,0,0.4C1259.3,767.7,1259.4,767.6,1259.4,767.5z M1259.4,765.8v-0.1C1259.4,765.8,1259.4,765.8,1259.4,765.8z
	 M1259.3,769c0,0.2,0,0.3,0,0.5C1259.3,769.3,1259.3,769.1,1259.3,769z M1259.5,764.2c0-0.1,0-0.2,0-0.4
	C1259.5,764,1259.5,764.1,1259.5,764.2z M1074.5,1019.2c-0.1,0-0.3,0.1-0.4,0.1C1074.3,1019.3,1074.4,1019.2,1074.5,1019.2z
	 M1118.1,1041.6l-40.7-23.5c0.1,0,0.2-0.1,0.3-0.1c-0.1,0.1-0.3,0.1-0.4,0.2l0,0l40.6,23.5L1118.1,1041.6z M1063.3,995.9
	c0.1-0.1,0.3-0.2,0.4-0.4C1063.6,995.7,1063.4,995.8,1063.3,995.9z M1058.7,1000c0.3-0.3,0.6-0.5,0.9-0.8
	C1059.3,999.5,1059,999.8,1058.7,1000z M1061,998c0.2-0.2,0.5-0.4,0.7-0.6C1061.5,997.6,1061.3,997.8,1061,998z M1071.6,1020.2
	L1071.6,1020.2L1071.6,1020.2z M1056.3,1002c0.3-0.3,0.7-0.6,1-0.8C1057,1001.5,1056.6,1001.7,1056.3,1002z M1044.8,1151.6
	c1-0.8,1.9-1.5,2.9-2.2c-0.4,0.3-0.8,0.6-1.3,0.9C1045.9,1150.8,1045.3,1151.2,1044.8,1151.6z M1047.7,1149.5
	c0.4-0.3,0.9-0.6,1.3-0.8C1048.6,1148.9,1048.1,1149.2,1047.7,1149.5z M1083.3,1016.1L1083.3,1016.1L1083.3,1016.1z M1037.4,1029
	L1037.4,1029L1037.4,1029z M1080.1,1017.2c0.2-0.1,0.3-0.1,0.5-0.2C1080.5,1017.1,1080.3,1017.1,1080.1,1017.2z M1283.1,837.6
	c0.3,1.2,0.6,2.1,0.9,2.9C1283.7,839.8,1283.4,838.8,1283.1,837.6z M1042.9,1028.7c0.1,0,0.1,0,0.2,0
	C1043,1028.6,1043,1028.6,1042.9,1028.7z M1053.8,1004c0.4-0.3,0.8-0.6,1.1-0.9C1054.5,1003.4,1054.2,1003.7,1053.8,1004z
	 M1039.6,1029.4c0.1,0,0.2,0,0.3-0.1C1039.8,1029.3,1039.7,1029.3,1039.6,1029.4z M1037.9,1028.7L1037.9,1028.7L1037.9,1028.7z
	 M1038.4,1028.3l-0.1,0.1C1038.4,1028.4,1038.4,1028.4,1038.4,1028.3z M1044.8,1028.2c-0.1,0-0.1,0-0.2,0
	C1044.7,1028.3,1044.7,1028.2,1044.8,1028.2z M1051.2,1006c0.4-0.3,0.8-0.6,1.3-1C1052.1,1005.3,1051.6,1005.6,1051.2,1006z
	 M1048.6,1007.9c0.5-0.3,0.9-0.7,1.4-1C1049.5,1007.2,1049,1007.6,1048.6,1007.9z M1045.8,1009.8c0.5-0.4,1-0.7,1.5-1.1
	C1046.9,1009.1,1046.4,1009.5,1045.8,1009.8z M1042.9,1011.8c0.6-0.4,1.2-0.8,1.8-1.2C1044.1,1011,1043.5,1011.4,1042.9,1011.8z
	 M1213.3,948.4C1213.4,948.4,1213.4,948.4,1213.3,948.4C1213.4,948.4,1213.4,948.4,1213.3,948.4z M1337.7,792.7
	c0.4-0.2,0.8-0.4,1.3-0.6C1338.6,792.3,1338.2,792.5,1337.7,792.7z M1335.4,793.9c0.6-0.3,1.2-0.6,1.7-0.9
	C1336.5,793.3,1336,793.6,1335.4,793.9z M1332,795.8c0.3-0.2,0.7-0.4,1.1-0.6C1332.7,795.4,1332.4,795.6,1332,795.8z M1333.7,794.8
	c0.5-0.3,0.9-0.5,1.4-0.8C1334.6,794.3,1334.1,794.6,1333.7,794.8z M1313.1,813.6c0.1-0.2,0.3-0.4,0.4-0.5
	C1313.4,813.2,1313.3,813.4,1313.1,813.6z M1172.9,1087.9c1.3-0.6,2.6-1.2,4-1.8l19.3,11.2l-19.3-11.2
	C1175.5,1086.7,1174.2,1087.3,1172.9,1087.9z M1328.4,798.2c0.5-0.3,1-0.7,1.4-1C1329.3,797.5,1328.8,797.9,1328.4,798.2z
	 M1312.5,814.5c0.1-0.2,0.3-0.4,0.4-0.6C1312.8,814.1,1312.6,814.3,1312.5,814.5z M1312.4,814.6c-0.2,0.2-0.3,0.5-0.4,0.7
	C1312.1,815.1,1312.3,814.8,1312.4,814.6z M1311.6,815.9c0.1-0.1,0.2-0.3,0.3-0.4C1311.8,815.6,1311.7,815.8,1311.6,815.9z
	 M1310.9,817L1310.9,817c0.1-0.1,0.2-0.3,0.3-0.4C1311.1,816.8,1311,816.9,1310.9,817L1310.9,817z M1311.5,816.1
	c-0.1,0.1-0.2,0.3-0.2,0.4C1311.3,816.3,1311.4,816.2,1311.5,816.1z M1326.9,799.3c0.3-0.3,0.7-0.5,1-0.8
	C1327.6,798.8,1327.3,799,1326.9,799.3z M1326.4,799.7c-0.3,0.2-0.6,0.4-0.8,0.7C1325.8,800.1,1326.1,799.9,1326.4,799.7z
	 M1317,808.7c0.2-0.2,0.4-0.4,0.6-0.7C1317.4,808.2,1317.2,808.4,1317,808.7z M1317.9,807.6c0.3-0.3,0.6-0.7,0.9-1
	C1318.5,807,1318.2,807.3,1317.9,807.6z M1277.2,785.7c0.7,10.5,2,25.6,3.5,37.5c0.1,1,0.2,1.9,0.4,2.8
	C1279.3,813.7,1278,797,1277.2,785.7z M1343.3,790.5c-0.6,0.2-1.1,0.4-1.6,0.6C1342.2,790.9,1342.8,790.7,1343.3,790.5z
	 M1345.8,789.7c-0.7,0.2-1.4,0.4-2.1,0.7C1344.4,790.1,1345.1,789.9,1345.8,789.7z M1322.5,802.9c0.4-0.3,0.8-0.7,1.2-1
	C1323.3,802.2,1322.9,802.6,1322.5,802.9z M1324.2,801.5c0.3-0.2,0.6-0.5,0.9-0.7C1324.7,801,1324.4,801.3,1324.2,801.5z
	 M1321.4,804c0.3-0.2,0.5-0.5,0.8-0.7C1321.9,803.5,1321.6,803.8,1321.4,804z M1319.8,805.6c-0.2,0.2-0.5,0.5-0.7,0.7
	C1319.4,806,1319.6,805.8,1319.8,805.6z M1320.9,804.5c-0.2,0.2-0.4,0.4-0.7,0.7C1320.5,804.9,1320.7,804.7,1320.9,804.5z
	 M1309.2,817.9C1309.2,817.9,1309.3,817.9,1309.2,817.9C1309.3,817.9,1309.2,817.9,1309.2,817.9z M1284,840.5l9.5-5.5L1284,840.5
	L1284,840.5z M1307.7,818.9c-0.1,0-0.1,0.1-0.2,0.1C1307.6,819,1307.7,819,1307.7,818.9z M1306.9,819.6c-0.1,0.1-0.2,0.2-0.3,0.2
	C1306.8,819.7,1306.8,819.6,1306.9,819.6z M1304.7,821.8c0.2-0.3,0.5-0.5,0.7-0.8C1305.2,821.2,1304.9,821.5,1304.7,821.8z
	 M1306.2,820.2c-0.1,0.1-0.3,0.3-0.4,0.4C1305.9,820.5,1306,820.4,1306.2,820.2z M1304.6,821.8c-0.5,0.5-0.9,1.1-1.3,1.6
	C1303.7,822.9,1304.2,822.4,1304.6,821.8z M1297.1,833.1c-0.4,0.4-0.7,0.7-1.1,1.1C1296.4,833.9,1296.7,833.5,1297.1,833.1z
	 M1300,828c0.1-0.2,0.2-0.4,0.4-0.6C1300.3,827.6,1300.2,827.8,1300,828z M1294.8,835.4c0.2-0.2,0.5-0.4,0.7-0.7
	C1295.3,834.9,1295.1,835.1,1294.8,835.4z M1301,826.5c0.2-0.3,0.4-0.5,0.6-0.8C1301.4,826,1301.2,826.3,1301,826.5z M1297.2,833
	L1297.2,833L1297.2,833L1297.2,833z M1188.3,969.4c0.2-0.1,0.4-0.2,0.6-0.3C1188.7,969.1,1188.5,969.3,1188.3,969.4z M1353.9,778.9
	L1353.9,778.9L1353.9,778.9z M1355,784.6c0,0.1,0,0.1,0,0.2C1355,784.7,1355,784.6,1355,784.6z M1314.4,811.9
	c0.2-0.3,0.4-0.6,0.7-0.9C1314.8,811.3,1314.6,811.6,1314.4,811.9z M1341,791.3c-0.3,0.1-0.5,0.2-0.8,0.3l0,0
	c-0.2,0.1-0.3,0.1-0.5,0.2C1340.1,791.7,1340.5,791.5,1341,791.3z M1308.4,818.4C1308.4,818.4,1308.5,818.4,1308.4,818.4
	C1308.5,818.4,1308.4,818.4,1308.4,818.4z M1315.3,810.7c0.2-0.2,0.4-0.5,0.6-0.7C1315.6,810.3,1315.4,810.5,1315.3,810.7z
	 M1313.7,812.8c0.1-0.2,0.3-0.4,0.4-0.6C1314,812.4,1313.9,812.6,1313.7,812.8z M1310.1,817.4L1310.1,817.4L1310.1,817.4z
	 M1316.1,809.7c0.2-0.2,0.3-0.4,0.5-0.6C1316.5,809.3,1316.3,809.5,1316.1,809.7z"></path>
<path id="color_x5F_10" fill="#FFFFFF" stroke="#FFFFFF" stroke-miterlimit="10" d="M924.8,1571.5l-22.8-13.2
	c35.3-19.4,71.1-34.1,108.2-17.7c27.7,12.2,44.6,29.7,54.4,48.8l-18.8,10.9c-10.1-12.3-24-23.2-43.1-31.6
	C976.1,1556.9,950.3,1561.1,924.8,1571.5z M516,1205c-67.3-85.7-4.5-51.1-39.2-212.9c-7.9-36.7-23.5-62.7-43-80.9l-37.1,21.4
	c19.5,18.2,35.2,44.2,43,80.8c34.7,161.8-28.1,127.2,39.2,212.9s174.9,57.1,177.1,135.3c0.6,20.1-5,34.8-11.8,47.9l19.8,11.4
	c10-24.6,30.1-43.3,29-80.7C690.9,1262.1,583.2,1290.7,516,1205z M991,745.6L991,745.6c-0.1,0-0.1,0.1-0.2,0.1
	c-0.2,0.1-0.4,0.2-0.6,0.3c-0.1,0-0.2,0.1-0.3,0.1c-0.2,0.1-0.4,0.2-0.6,0.3c-0.1,0-0.2,0.1-0.3,0.1c-0.2,0.1-0.4,0.1-0.7,0.2
	c-0.1,0-0.3,0.1-0.4,0.1c-0.2,0.1-0.5,0.1-0.7,0.2c-0.1,0-0.3,0.1-0.4,0.1c-0.2,0-0.5,0.1-0.7,0.1c-0.1,0-0.3,0.1-0.4,0.1
	c-0.3,0-0.5,0.1-0.8,0.1c-0.2,0-0.3,0-0.5,0.1c-0.3,0-0.6,0-0.9,0.1c-0.1,0-0.3,0-0.4,0c-0.4,0-0.9,0-1.3,0l0,0l0,0l0,0
	c-0.4,0-0.9,0-1.3,0c-0.1,0-0.3,0-0.4,0c-0.3,0-0.6,0-0.9-0.1c-0.2,0-0.3,0-0.5-0.1c-0.3,0-0.5-0.1-0.8-0.1c-0.2,0-0.3-0.1-0.4-0.1
	c-0.2,0-0.5-0.1-0.7-0.1c-0.1,0-0.3-0.1-0.4-0.1c-0.2-0.1-0.5-0.1-0.7-0.2c-0.1,0-0.3-0.1-0.4-0.1c-0.2-0.1-0.5-0.1-0.7-0.2
	c-0.1,0-0.2-0.1-0.3-0.1c-0.2-0.1-0.4-0.2-0.6-0.3c-0.1,0-0.2-0.1-0.3-0.1c-0.2-0.1-0.4-0.2-0.6-0.3c-0.1,0-0.1-0.1-0.2-0.1l0,0
	c-1.8-1-2.9-2.3-2.9-3.7c0-0.3,0.1-0.6,0.2-0.9c0.3,0.8,0.9,1.5,1.8,2.2c0.4-2.5,4.8-4.4,10.1-4.4s9.8,1.9,10.1,4.4
	c0.9-0.6,1.5-1.4,1.8-2.2c0.1,0.3,0.2,0.6,0.2,0.9C994,743.3,992.9,744.6,991,745.6z M991.5,743.5c-1.4-1.9-5.2-3.2-9.6-3.2
	c-4.5,0-8.3,1.3-9.6,3.2c0.1,0.1,0.2,0.1,0.3,0.2c0.2,0.1,0.4,0.2,0.6,0.3c0.1,0,0.2,0.1,0.3,0.1c0.2,0.1,0.5,0.2,0.7,0.3
	c0.1,0,0.2,0.1,0.3,0.1c0.2,0.1,0.5,0.2,0.8,0.3c0.1,0,0.3,0.1,0.4,0.1c0.3,0.1,0.5,0.1,0.8,0.2c0.2,0,0.3,0.1,0.5,0.1
	c0.3,0.1,0.5,0.1,0.8,0.2c0.2,0,0.4,0.1,0.6,0.1c0.2,0,0.5,0.1,0.7,0.1c0.3,0,0.6,0,0.8,0.1c0.2,0,0.4,0,0.5,0c0.5,0,1,0,1.4,0l0,0
	c0.5,0,1,0,1.4,0c0.2,0,0.4,0,0.6,0c0.3,0,0.6,0,0.8-0.1c0.2,0,0.5-0.1,0.7-0.1s0.4-0.1,0.6-0.1c0.3,0,0.5-0.1,0.8-0.2
	c0.2,0,0.3-0.1,0.5-0.1c0.3-0.1,0.5-0.1,0.8-0.2c0.1,0,0.3-0.1,0.4-0.1c0.3-0.1,0.5-0.2,0.8-0.3c0.1,0,0.2-0.1,0.3-0.1
	c0.2-0.1,0.5-0.2,0.7-0.3c0.1,0,0.2-0.1,0.3-0.1c0.2-0.1,0.4-0.2,0.6-0.3C991.2,743.6,991.4,743.6,991.5,743.5z"></path>
<path id="color_x5F_9" fill="#90A7B5" d="M867.4,629.8l49.1-28.4c23.6,1.2,24.5,14.1,24.5,14.1l-49.1,28.4
	C886.7,629.5,867.4,629.8,867.4,629.8z M970.9,854.2c2.4,1.5,6.4,3.6,11.6,3.6c5.4,0,9.4-2.1,11.8-3.7c2.2-1.6,4.4-3.5,4.4-6.8
	v-20.9c-3.9,2.8-9.8,4.7-16.2-1.3c-6.8-6.4-12.9-4.9-16.6-2.9v25.5C965.9,850.9,968.3,852.7,970.9,854.2z M979.3,810.6
	c0,2.4-1.9,4.3-4.3,4.3s-4.3-1.9-4.3-4.3c0-2.4,1.9-4.3,4.3-4.3S979.3,808.2,979.3,810.6z M986.3,814.9c0,1.3-1,2.3-2.3,2.3
	s-2.3-1-2.3-2.3s1-2.3,2.3-2.3S986.3,813.6,986.3,814.9z M1246.5,1397.4l-3.5,21.2c0,0-1.7,3.1-2.7-1.2c-0.9-4.3,1.3-26.2,1.3-26.2
	s3.3-4.3,7.9-8.2c1.1,1.3,2.5,2.4,4.1,3.4l3.6,1C1252.7,1392,1246.5,1397.4,1246.5,1397.4z M1272.8,1391.7l-9.2-2.5
	c-5.1,4.1-8.8,8.8-8.8,8.8s-2.2,21.9-1.3,26.2c0.9,4.3,2.7,1.2,2.7,1.2l3.5-21.2C1259.7,1404.2,1268.5,1396.5,1272.8,1391.7z
	 M1215.6,1360.7c-0.4,0.2-0.6,0.6-0.6,1.2C1215.2,1361.5,1215.4,1361.1,1215.6,1360.7z M1246.5,1368.1c-5.1,0.2-13.1-1.8-19.1-3.6
	c-1.1,1-2.5,1.8-4,2.2l-1.6,0.5c7.2,2.8,18.4,5.6,24,5.5C1245.8,1371.1,1246,1369.5,1246.5,1368.1z M1270.9,1403.2
	c0,0-2.2,21.9-1.3,26.2c0.9,4.3,2.7,1.2,2.7,1.2l3.5-21.2c0,0,9.7-8.3,13.7-13.2l-9-2.5C1274.9,1397.9,1270.9,1403.2,1270.9,1403.2z
	 M1371.2,1369.5c-3.2-3-23.1-12.4-23.1-12.4s-1.5,0.2-3.7,0.6c-5.9-4.8-13.3-10.3-13.3-10.3s-4.4-0.4-9.7,0.2c5.2-1.4,10.1-3,10.1-3
	l19.9,8c0,0,3.6,0.1,0.4-2.9s-23.1-12.4-23.1-12.4s-8.8,1-15.9,4.6l16.3,13.7c2-0.2,3.4-0.4,3.4-0.4l6.2,4c-1.3,0.4-2.7,0.9-4.1,1.5
	c1.5,2.4,2.4,5.1,2.5,7.8c3.9-0.9,8.3-2.2,11-3.1l2.3,1.5c0,0,3,0.7,1.4-2l19,7.6C1370.8,1372.3,1374.3,1372.5,1371.2,1369.5z
	 M1292.8,1323l-4,2.3c3.1,3.1,6.4,6.7,8.8,10c1.9-0.2,3.8-0.1,5.6,0.3C1301.4,1332.2,1297.2,1327.3,1292.8,1323z"></path>
<path id="color_x5F_8" fill="#9F9C64" d="M1467.1,1082.5l-318.4,177.2V1158l226.4-130.2l65.7,37.9v1.7L1467.1,1082.5z
	 M1093.2,1189.9l-13.4,7.7l-30.3,34.3l43.8,26.5v-68.5H1093.2z"></path>
<path id="color_x5F_7" fill="#C5D82D" d="M1014.7,992.1l1,0.6c-4.8,7.9-7.7,12.8-7.7,12.8l-34,10.2L1014.7,992.1z M1250.2,882.4
	l14.2-11.4c-2.8-2.6-5.1-5.2-6.7-7.3c-0.8-1-1.3-3.6-1.7-7.2l-29.5,17C1234.1,876.2,1241.9,879.2,1250.2,882.4z M1359.9,985.2
	c0,0-2.8-0.8-11.2-2.9c-0.1,0-0.1,0-0.2-0.1c-3.4,5.1-6.5,9.8-9.3,13.9l4,2.3C1350.3,992.3,1359.9,985.2,1359.9,985.2z
	 M1006.9,1127.6l103.5-80l-44.1-25.6c-13.9,4.6-23.7,7-30.8,8.1c-14.1,6.7-62.9,16.3-75.1,12.2c-7-2.3-11.7-6.6-14.7-10.3
	l-52.2,30.1L1006.9,1127.6z M1285.3,842.4c1.3,0.3,4.8-2.5,9.2-6.8l-1.1-0.6l-9.5,5.5C1284.4,841.7,1284.9,842.3,1285.3,842.4z
	 M1355.8,787.6c-1.1-4-1.9-7.9-2.2-11.5l-13.5,15.5C1344.8,789.7,1350,788.3,1355.8,787.6z M1357.9,995.7c-1,0.6-5.2,3.1-9.7,5.6
	l1,0.6C1352.8,998.9,1356.9,996.3,1357.9,995.7z M1172.7,938.3c-9.1-4.1-19.5-9.6-32-17.1l-38.2,22.1c-6.3,12.6-15.1,26.8-27.2,40.5
	C1109.2,967.4,1148.9,949.4,1172.7,938.3z M1228.2,956.4l-9-5.2c-13.9,9-55.7,34.2-123.7,60.2c-2.1,0.8-4.1,1.6-6.1,2.3l37,21.4
	L1228.2,956.4z M1374.9,965.6c0.9-0.7,1.8-1.2,2.7-1.5l27.8-49.7l0.5-14.1l-4.8-2.8c-7.5,11.3-16.6,29.9-22.6,38.9
	c-5.5,8.2-16.4,25.1-26.5,40.6C1361.7,979.3,1374.9,965.6,1374.9,965.6z M1295.4,1038.2l37-21.4l-6.4-3.7
	C1320.1,1019.6,1310.7,1028.4,1295.4,1038.2z M1417.7,965.4l50.4-29.1L1447,924C1439.8,936.9,1427.6,953.1,1417.7,965.4z
	 M1276.3,1049.2c-3.9,2-44.8,15.7-77,27.9l14.4,8.3l64.1-37C1277.2,1048.7,1276.8,1048.9,1276.3,1049.2z M1433.3,684.5l-5.5,6.3
	c13.8,6.6,21.5,17,21.5,17s9.4,20,8.9,37.9c1.5,1.4,2.6,2.9,3.1,4.5c3.3,9.9-10.8,22.6,0,33.6s0,60.4,0,60.4s-6,28.7-7.9,48.4
	l36.3,21l113.7-131L1433.3,684.5z M1149.1,527.9l214.4-123.8c0,0-3.8-56.4-106.9-61.7l-214.4,123.8
	C1042.2,466.2,1126.5,465.1,1149.1,527.9z M934.4,665.2l49.1-28.4c0,0-0.9-12.9-24.5-14.1L909.9,651
	C909.9,651,929.2,650.8,934.4,665.2z M1161,1094.4c-12.3,10.3-98.7,46-112,54.2c-0.9,0.5-1.7,1.1-2.6,1.8l29,16.7l120.9-69.8
	l-19.3-11.2C1169.2,1089.4,1163.4,1092.3,1161,1094.4z M981.3,877.3L746.9,741.9l120.4-69.5v42.5c23.5-1.8,24.5,12,24.5,13.9v0.2
	l18-10.4v17.6c23.5-1.8,24.5,12,24.5,13.9v0.2l49.2-28.4v-36.8l165.5,95.7L981.3,877.3z M968.3,857.7c3,1.8,7.9,4.4,14.3,4.4
	c6.6,0,11.6-2.6,14.5-4.6c2.7-1.9,5.4-4.3,5.4-8.4l-0.4-79.7c0-3.9-4.9-4.5-8.2-7.6c-2.1-1.9-1.3-11.4-1.3-11.4
	c0-0.5-0.1-1.1-0.2-1.6c3.3-1.3,5.3-3.3,5.3-5.4c0-4-7-7.2-15.5-7.2s-15.5,3.2-15.5,7.2c0,2.1,1.9,3.9,4.8,5.2
	c-0.1,0.6-0.2,1.2-0.2,1.8c0,0,0.9,9.5-1.3,11.4c-3.4,3-8.2,3.7-8.2,8.2l0.4,79.7C962.1,853.6,965.1,855.8,968.3,857.7z M1010,1175
	c-3.8-1.4-4.3-4.3-3.3-7.4c-18.9-2.3-52.7-11.4-60.2-10.8c-9.6,0.8-25.4-26.1-21.1-24.8c2.1,0.6,22.6-0.1,42.2-1l-92.2-53.2
	L754,1217.5l181.7,104.9l121.3-139.8l-28.2-16.3C1022,1172.4,1015.6,1177,1010,1175z"></path>
<path id="color_x5F_6" fill="#F3F0BD" d="M1256.1,856.6l-29.5,17c-7.5-2.6-14.5-5-21.2-7l50.1-29
	C1255.6,845.2,1255.7,851.8,1256.1,856.6z M1118,1041.7l-40.6-23.5c-4,1.4-7.6,2.7-11.1,3.8l44.1,25.6L1118,1041.7z M1126.5,1035.1
	l-37-21.4c-4.3,1.6-8.3,3.1-12.1,4.4l40.7,23.5L1126.5,1035.1z M1401.1,897.4l4.8,2.8l0.3-9.5C1404.7,892.3,1403,894.6,1401.1,897.4
	z M1231.2,954.1c0.4-0.3,0.6-0.6,0.9-0.9c-3.2-0.7-3.7-5.9-3.7-5.9c-1.3,0.2-2.7,0.3-4,0.5c0,0-1.8,1.3-5.2,3.4l9,5.2L1231.2,954.1z
	 M1287.9,819.1l-7.2,4.2c1,7.8,2.1,14.2,3.3,17.3l9.5-5.5l1.1,0.6c0.9-0.8,1.7-1.7,2.7-2.6c1.7-3.6,4.1-7.3,7.5-11.2
	c1.9-2.2,4-3.8,6.2-4.8c2.2-3.7,11.5-18.1,29.3-25.4l13.5-15.5c-0.5-8.3,1.8-15.7,9.4-22.6c10.9-9.9,15.3-19.6,15.4-33.9
	c0-2,0.5-4.2,1.3-6.5L1287.9,819.1L1287.9,819.1z M1140.7,921.2c-4.5-2.7-9.2-5.6-14.3-8.9l-14.4,8.3c-2.2,6.2-5.3,14-9.6,22.6
	L1140.7,921.2z M1447,924l21.2,12.3l-50.4,29.1c-4.6,5.8-8.7,10.7-11.5,14c-8.5,10.3-18.3,16.1-23.7,16.4c-4.2,6-8.5,12-11.8,15.9
	l125.1-72.2l-44.2-25.6C1450.6,916.9,1449,920.3,1447,924z M1427,658.9l-28.1,32.3c6.5-3.8,13.7-5.6,20.6-3.6c3,0.9,5.8,1.9,8.3,3.2
	l5.5-6.3l170.2,98.1l-113.7,131l-36.3-21c-0.6,5.6-0.8,10.5-0.5,13.7c0.2,1.9-0.3,4.4-1.3,7.2l44.4,25.6L1635.2,779L1427,658.9z
	 M1368.8,1002.9c0,0-12.3,16.3-13.7,12.9c-1.4-3.4,5.7-14.3,5.7-14.3s-17.2,12.9-17,7.7c0.1-2.1,2.6-4.9,5.5-7.3l-1-0.6
	c-6.7,3.8-14.1,7.5-12.6,4.6c0.9-1.7,3.9-4.5,7.4-7.6l-4-2.3c-2.6,3.7-4.8,6.8-6.5,9l24.8,14.3l7.2-4.2
	C1363.5,1012.4,1368.8,1002.9,1368.8,1002.9z M1176.9,1086.1l19.3,11.2l-120.9,69.8l-29-16.7c-2.4,1.7-4.8,3.8-7.2,6l40.6,23.4
	l138.5-80l-31.1-18C1183.5,1083.3,1180.1,1084.7,1176.9,1086.1z M1028.8,1166.2l28.2,16.3l-121.3,139.8L754,1217.4l121.4-139.7
	l92.2,53.2c9-0.4,17.8-0.8,24.6-1.2l-121.3-70l-139,160.3l208.3,120.3l139.1-160.3l-40.3-23.3
	C1035.5,1159.8,1032.1,1163.2,1028.8,1166.2z M993.1,1129.8c7.1-0.4,11.9-0.6,11.9-0.6l2-1.6l-113.4-65.5l52.2-30.1
	c-3-3.6-4.2-6.6-4.2-6.6l32.5-9.7l40.8-23.5l1,0.6c4-6.6,9.4-15.5,15.5-25.4l-21,12.1l0,0l-138.8,80.1L993.1,1129.8z M1326,1013.1
	l6.4,3.7l-37,21.4c-5.2,3.3-11,6.7-17.7,10.2l-64.1,37l-14.4-8.3c-4.1,1.6-8.1,3.1-11.8,4.6l31.1,18l138.5-80l-24.7-14.3
	C1331,1007.3,1328.9,1009.9,1326,1013.1z"></path>
<path id="color_x5F_5" fill="#FFD2BB" d="M941.5,1025.4l66.5-19.9c0,0,87-144,94.6-147.4s44.9-19.1,164.3,31.2
	c0,0,4.8,12.1-38.5,58.1l0,0c-25.6,3.2-47,1.5-112-41.6c0,0-14.3,69.6-77.2,108.4c0,0,3.8,7,0,13.3c-3.8,6.3-64.9,19.4-78.8,14.7
	C946.6,1037.6,941.5,1025.4,941.5,1025.4z M1232,953.2L1232,953.2c-0.2,0.3-0.5,0.6-0.9,0.9l-226.3,175c0,0-75.2,4.1-79.5,2.8
	c-4.2-1.3,11.5,25.7,21.1,24.8c9.6-0.8,63.5,14.7,71.9,10.5c8.4-4.2,7.4-18.4,7.4-18.4s10.1-23.2,64.9-32.9s75-56.9,75-56.9
	c125.1-2.5,145.3-55.6,157.9-62.8c3.6-2,12-13.8,22.1-29.4C1269.6,928.2,1245.6,956,1232,953.2z M1417,798.8
	c-2.9-4.1-4.2-12.1-4.7-18.7c0-0.4,0-0.8-0.1-1.1c-0.1-0.8-0.1-1.5-0.1-2.3c4-1.2,8.4-3.5,13.2-7.2c0.8-0.6,1.6-1.3,2.3-1.9
	c0.3-0.3,0.6-0.5,0.8-0.8c0.4-0.4,0.8-0.8,1.2-1.2c0.4-0.3,0.7-0.7,1-1s0.6-0.6,0.9-0.9c0.4-0.4,0.7-0.8,1.1-1.3
	c0.2-0.3,0.4-0.5,0.6-0.8c0.4-0.5,0.8-1,1.1-1.4c0.1-0.2,0.3-0.4,0.4-0.6c0.4-0.5,0.8-1.1,1.1-1.6c0.1-0.1,0.2-0.3,0.3-0.4
	c0.4-0.6,0.8-1.2,1.1-1.8c0-0.1,0.1-0.1,0.1-0.2c0.4-0.7,0.8-1.3,1.1-2c-10.6-14.7-10.8-34.2-10.8-34.2c-16.7,10.9-35.6,6.8-43,4.5
	l0,0c-0.2,0.5-0.3,0.9-0.5,1.5c0,0.1-0.1,0.3-0.1,0.4c-0.2,0.5-0.3,0.9-0.5,1.4c0,0.1,0,0.1-0.1,0.2c-0.2,0.6-0.4,1.1-0.6,1.7
	c0,0.1-0.1,0.3-0.1,0.4c-0.2,0.5-0.3,1-0.5,1.5c0,0.1-0.1,0.3-0.1,0.4c-0.2,0.6-0.4,1.2-0.6,1.9c0,0.1-0.1,0.3-0.1,0.4
	c-0.1,0.5-0.3,1.1-0.4,1.6c0,0.2-0.1,0.3-0.1,0.5c-0.2,0.7-0.3,1.3-0.5,2c0,0.1,0,0.2-0.1,0.3c-0.1,0.6-0.3,1.2-0.4,1.7
	c0,0.2-0.1,0.4-0.1,0.6c-0.1,0.6-0.2,1.2-0.4,1.8c0,0.1,0,0.1,0,0.2c-0.1,0.7-0.2,1.3-0.3,2c0,0.2,0,0.3-0.1,0.5
	c-0.1,0.5-0.1,1.1-0.2,1.6c0,0.1,0,0.3,0,0.4c-0.1,0.6-0.1,1.2-0.1,1.8c0,0.1,0,0.3,0,0.4c0,0.5,0,1,0,1.4c0,0.1,0,0.3,0,0.4
	c0,0.6,0.1,1.1,0.1,1.7c0,0.1,0,0.2,0,0.3c0.1,0.4,0.1,0.9,0.2,1.3c0,0.1,0.1,0.3,0.1,0.4c0.1,0.5,0.3,1,0.4,1.4
	c1.6,4.1,4.6,9.9,9.2,14.4c-0.1,0.8-0.3,1.6-0.6,2.3c-0.2,0.4-0.4,0.9-0.5,1.5c-3.7,9.5-13,14.1-13,14.1c-0.8-0.1-1.6-0.3-2.4-0.4
	c-0.2,0-0.5-0.1-0.7-0.1c-0.5-0.1-1.1-0.1-1.6-0.2c-0.3,0-0.5-0.1-0.8-0.1c-0.5-0.1-1.1-0.1-1.6-0.1c-0.2,0-0.4,0-0.7,0
	c-0.7,0-1.4-0.1-2.1-0.1h-0.1c-0.8,0-1.5,0-2.3,0c-0.1,0-0.2,0-0.3,0c-0.6,0-1.3,0-1.9,0c-0.1,0-0.3,0-0.4,0c-0.6,0-1.2,0.1-1.8,0.1
	c-0.1,0-0.2,0-0.4,0c-0.7,0.1-1.4,0.1-2,0.2l0,0c-28.1,3.2-42.2,24.8-44.9,29.4c16.3-7.3,37.8,16.4,38.7,17.7
	c10.1,14.6-6.6,20.3-6.6,20.3c-27.4,18.1-48.4,2.3-48.4,2.3s-3.9-10.5,2.7-24.3c-5.6,5.7-10.3,9.8-11.9,9.4
	c-3.9-0.9-7.2-42.7-8.4-61c0.8-0.7,1.4-1.7,1.8-2.8l2.4-21c0,0,8.8-20.8,8.6-25.8c-0.2-4.7-10.6,15-11.7,17.2
	c0.8-1.6,6.4-12.5,4.4-16.1c-2.1-3.8-9,13.2-9,13.2s0.4-11.1-2.1-13s-4.3,15.5-4.3,15.5s-0.4-12.9-3.6-11c-2.2,1.4-3.4,22.1-4,34.6
	c-0.7,9.3-6.6,84.6-1.3,91.4c4.4,5.7,13.5,15.2,26.4,18c-5.1,4.1-10.6,6-14,6.9c23.4,12,66.7,58.6,77.8,73c0.4,0.5,0.5,0.9,0.5,1.4
	c14.7-23,32.4-53,44.5-73.8c-7.5-0.2-26-3-37.8-25.9c0,0-11.7-13.2,4.2-21c1.6-0.8,40.5-13.7,45.5,10.8c1.5,7.2,1.3,13.3,0.4,18.3
	c0.9,0.3,1.7,1.1,1.7,2.3l-1.5,40.6l-27.8,49.7c-0.9,0.3-1.8,0.8-2.7,1.5c0,0-14,14.5-23.7,11.1c-9.8-3.4-10.9,3.5-2.6,5.6
	s11.2,2.9,11.2,2.9s-21.4,15.6-24.2,20.7c-2.6,4.8,19.8-8.8,22.2-10.2c-1.8,1.1-14,8.8-14.1,13.5c-0.2,5.1,17-7.7,17-7.7
	s-7.1,10.9-5.7,14.3c1.4,3.4,13.7-12.9,13.7-12.9s-7.4,13.2-3,13.2c4.1,0,26.6-34.9,30.4-40.8c11.1-11.5,24.4-25.4,30.3-31.9
	c10.9-12.2,24-93.9,22.7-112.4C1448,812.4,1417,798.8,1417,798.8z"></path>
<path id="color_x5F_4" fill="#00CEC9" d="M1635.2,779v20.1l-138.9,158.7v109.6l-27.8,16V974l-319.9,184v103l-27.8,16v-103
	l-41.2,23.7L940,1355.6L731.7,1234v-14L940,1340.3l139.1-160.3l0.3-0.2l0.2,0.1l138.5-80l-0.1-0.1l0.3-0.2l0.1,0.1l138.5-80
	l-0.1-0.1l0.3-0.2h0.1l7.2-4.2c0.2,0.5,0.6,0.8,1.3,0.8c0.9,0,2.7-1.7,5-4.4l125.1-72.2l0,0l0.2-0.1L1635.2,779z M981.6,916.2
	l167.5-97v-38.4l-167.8,96.5L981.6,916.2z M1205.5,866.6l50.1-29c0.3-24.9,3-59.3,3.5-65.3c0.2-4,0.4-8.8,0.7-13.6l-21.3-15.8v-78.6
	l32.3,31.4h53.9v77.5l-44.8-5.4l-1.2,10.7c-0.4,1.2-1.1,2.1-1.8,2.8c0.7,10.3,2,28.1,3.8,41.8l7.2-4.2h-0.1l75.9-87.4l-0.2-327.6
	l-214.4,123.8l0.1,326.2C1163.6,855.8,1182.1,859.4,1205.5,866.6z M983.6,721.9l-0.1-85.1l-49.1,28.4v85.1L983.6,721.9z
	 M948.1,896.9l-33.5-19.3v157.1l33.5-19.3V896.9z"></path>
<path id="color_x5F_3" opacity="0.52" fill="#E84393" enable-background="new    " d="M1095.6,1011.5c-30.5,11.7-48.8,17-60.1,18.6
	c1.9-0.9,3.2-1.8,3.7-2.5c3.8-6.3,0-13.3,0-13.3c14.5-8.9,26.3-19.5,36.1-30.4c33.9-16.3,73.6-34.4,97.4-45.5
	c22.9,10.2,37.1,11,51.7,9.5C1224.2,948,1180.1,979.1,1095.6,1011.5z M1266.9,889.2c0,0,0.3,0,0.7-0.1c0.7-0.3,1.4-1.1,2.1-0.8
	c0.2,0.1,0.4,0.2,0.5,0.3c3.4-0.8,9-2.7,14-6.9c-8.2-1.8-14.9-6.2-19.8-10.7l-14.2,11.4C1255.6,884.6,1261.1,886.8,1266.9,889.2z
	 M1461.4,783.9c-10.8-11,3.3-23.8,0-33.6c-0.5-1.6-1.7-3.2-3.1-4.5c-0.1,5.1-1.1,10.1-3.4,14.3c-10.1,19-0.4,29.5,3.4,41.3
	s-9,29.6-9,29.6c1.3,18.5-11.8,100.2-22.7,112.4c-5.9,6.5-19.2,20.4-30.3,31.9c-1.7,2.7-7.5,11.7-13.6,20.5
	c5.4-0.3,15.1-6.1,23.7-16.4c12-14.4,48.2-58.1,46.7-72.9c-1.5-14.8,8.4-62.1,8.4-62.1S1472.2,795,1461.4,783.9z M1351.2,976.7
	c0.3,0.1,0.5,0.2,0.8,0.2c10.1-15.4,21-32.3,26.5-40.6c7.5-11.2,19.8-37.4,27.8-45.6l0.6-16.9c0-1.2-0.7-2-1.7-2.3
	c-2.2,11.9-9,17.6-9,17.6s-1.2,0.2-3.3,0.1c-12.1,20.8-29.8,50.8-44.5,73.8c0.1,2.1-2.6,4.1-2.6,4.1l0,0
	c-10.1,15.7-18.5,27.4-22.1,29.4c-12.6,7.2-32.9,60.2-157.9,62.8c0,0-20.2,47.2-75,56.9s-64.9,32.9-64.9,32.9s1,14.2-7.4,18.4
	c-1.9,1-6.2,0.9-11.8,0.2c-1,3.1-0.6,6,3.3,7.4c11,4,25.6-18.1,39-26.4c13.3-8.3,99.7-43.9,112-54.2
	c12.3-10.3,109.2-42.1,115.3-45.2c36.9-19,50.7-36.8,56.2-43.8c3.6-4.6,9.5-13.3,16-23.1C1340.3,980,1341.5,973.3,1351.2,976.7z"></path>
<path id="color_x5F_2" fill="#FBC02D" d="M1246.3,1337.7l-15.8,21.9c-0.9,3.5-3.6,6.2-7,7.2l-7.6,2.2c-1.4,0.4-2.8,0.5-4.1,0.3
	c0.3-1,0.8-2.1,1.4-3.4c7.1-14.6,11.4-22.3,11.4-22.3l5.7-2.2l-3.4-7.5c0,0,1.5-4.6,11.5-8.4
	C1243.8,1326.3,1247.8,1331.7,1246.3,1337.7z M962.1,849.7l-0.4-79.7c0-4.6,4.9-5.2,8.2-8.2c2.1-1.9,1.3-11.4,1.3-11.4
	c0-0.6,0.1-1.2,0.2-1.8c-3-1.3-4.8-3.2-4.8-5.2c0-4,7-7.2,15.5-7.2s15.5,3.2,15.5,7.2c0,2.2-2.1,4.1-5.3,5.4c0.1,0.5,0.2,1,0.2,1.6
	c0,0-0.9,9.5,1.3,11.4c3.4,3,8.2,3.7,8.2,7.6l0.4,79.7c0,4.1-2.7,6.5-5.4,8.4c-2.9,2-7.9,4.6-14.5,4.6c-6.4,0-11.3-2.6-14.3-4.4
	C965.1,855.8,962.1,853.6,962.1,849.7z M972.6,745.6L972.6,745.6c0.1,0,0.1,0.1,0.2,0.1c0.2,0.1,0.4,0.2,0.6,0.3
	c0.1,0,0.2,0.1,0.3,0.1c0.2,0.1,0.4,0.2,0.6,0.3c0.1,0,0.2,0.1,0.3,0.1c0.2,0.1,0.4,0.1,0.7,0.2c0.1,0,0.3,0.1,0.4,0.1
	c0.2,0.1,0.5,0.1,0.7,0.2c0.1,0,0.3,0.1,0.4,0.1c0.2,0,0.5,0.1,0.7,0.1c0.1,0,0.3,0.1,0.4,0.1c0.3,0,0.5,0.1,0.8,0.1
	c0.2,0,0.3,0,0.5,0.1c0.3,0,0.6,0,0.9,0.1c0.1,0,0.3,0,0.4,0c0.4,0,0.9,0,1.3,0l0,0l0,0c0.4,0,0.9,0,1.3,0c0.1,0,0.3,0,0.4,0
	c0.3,0,0.6,0,0.9-0.1c0.2,0,0.3,0,0.5-0.1c0.3,0,0.5-0.1,0.8-0.1c0.2,0,0.3-0.1,0.4-0.1c0.2,0,0.5-0.1,0.7-0.1
	c0.1,0,0.3-0.1,0.4-0.1c0.2-0.1,0.5-0.1,0.7-0.2c0.1,0,0.3-0.1,0.4-0.1c0.2-0.1,0.5-0.1,0.7-0.2c0.1,0,0.2-0.1,0.3-0.1
	c0.2-0.1,0.4-0.2,0.6-0.3c0.1,0,0.2-0.1,0.3-0.1c0.2-0.1,0.4-0.2,0.6-0.3c0.1,0,0.1-0.1,0.2-0.1l0,0c1.8-1,2.9-2.3,2.9-3.7
	c0-0.3-0.1-0.6-0.2-0.9c-0.3,0.8-0.9,1.5-1.8,2.2c-0.4-2.5-4.8-4.4-10.1-4.4s-9.8,1.9-10.1,4.4c-0.9-0.6-1.5-1.4-1.8-2.2
	c-0.1,0.3-0.2,0.6-0.2,0.9C969.7,743.3,970.8,744.6,972.6,745.6z M983.9,812.6c-1.3,0-2.3,1-2.3,2.3s1,2.3,2.3,2.3s2.3-1,2.3-2.3
	C986.3,813.6,985.2,812.6,983.9,812.6z M970.6,810.6c0,2.4,1.9,4.3,4.3,4.3s4.3-1.9,4.3-4.3c0-2.4-1.9-4.3-4.3-4.3
	S970.6,808.2,970.6,810.6z M965.9,847.8c0,3.1,2.4,5,5,6.5c2.4,1.5,6.4,3.6,11.6,3.6c5.4,0,9.4-2.1,11.8-3.7
	c2.2-1.6,4.4-3.5,4.4-6.8v-20.9c-5-9.1-16.2-1.3-16.2-1.3c-6.8-6.4-12.9-4.9-16.6-2.9V847.8z M1336,1375c0.2-0.4,0.3-0.8,0.4-1.2
	C1336.3,1374.2,1336.1,1374.6,1336,1375L1336,1375z M891.9,728.8v0.2C891.9,729,891.9,728.9,891.9,728.8z M902,1558.3v80.2
	l22.8,13.2v-80.2L902,1558.3z M973.5,744.1c0.2,0.1,0.5,0.2,0.7,0.3c0.1,0,0.2,0.1,0.3,0.1c0.2,0.1,0.5,0.2,0.8,0.3
	c0.1,0,0.3,0.1,0.4,0.1c0.3,0.1,0.5,0.1,0.8,0.2c0.2,0,0.3,0.1,0.5,0.1c0.3,0.1,0.5,0.1,0.8,0.2c0.2,0,0.4,0.1,0.6,0.1
	c0.2,0,0.5,0.1,0.7,0.1c0.3,0,0.6,0,0.8,0.1c0.2,0,0.4,0,0.5,0c0.5,0,1,0,1.4,0l0,0c0.5,0,1,0,1.4,0c0.2,0,0.4,0,0.6,0
	c0.3,0,0.6,0,0.8-0.1c0.2,0,0.5-0.1,0.7-0.1s0.4-0.1,0.6-0.1c0.3,0,0.5-0.1,0.8-0.2c0.2,0,0.3-0.1,0.5-0.1c0.3-0.1,0.5-0.1,0.8-0.2
	c0.1,0,0.3-0.1,0.4-0.1c0.3-0.1,0.5-0.2,0.8-0.3c0.1,0,0.2-0.1,0.3-0.1c0.2-0.1,0.5-0.2,0.7-0.3c0.1,0,0.2-0.1,0.3-0.1
	c0.2-0.1,0.4-0.2,0.6-0.3c0.1-0.1,0.2-0.1,0.3-0.2c-1.4-1.9-5.2-3.2-9.6-3.2c-4.5,0-8.3,1.3-9.6,3.2c0.1,0.1,0.2,0.1,0.3,0.2
	c0.2,0.1,0.4,0.2,0.6,0.3C973.3,744.1,973.4,744.1,973.5,744.1z M1264.6,1313l-3-7.7c0,0-4.3-2.2-14,2.4c-3.1,4.6-2.1,11.3,3.2,14.3
	l26.7,4c3.1,1.8,6.9,1.8,10,0l6.9-3.9c1.3-0.7,2.3-1.7,3.1-2.7c-0.9-0.5-2-0.9-3.4-1.4c-15.5-5.2-24-7.4-24-7.4L1264.6,1313z
	 M1263.1,737.7c3.2-2,3.6,11,3.6,11s1.8-17.4,4.3-15.5s2.1,13,2.1,13s6.9-17,9-13.2c2,3.5-3.5,14.5-4.4,16.1
	c1.1-2.2,11.5-21.9,11.7-17.2c0.2,4.9-8.6,25.8-8.6,25.8l-1.2,10.3l44.8,5.4v-77.5h-53.9l-32.3-31.4V743l21.3,15.8
	C1260.5,748.5,1261.6,738.6,1263.1,737.7z M891.9,728.8v-84.9c-5.2-14.4-24.5-14.2-24.5-14.2v85.2
	C890.9,713.2,891.9,726.9,891.9,728.8z M1300.4,1386.7l-36.7-10.1c-7.2-4.1-9.4-12.5-6.8-19.3l-3.3,1.9c-10.5,6.1-10.5,21.2,0,27.3
	l36.7,10.1c4.9,2.8,10.9,2.8,15.8,0l23.1-13.6c3.3-1.9,5.6-4.7,6.8-7.9l-19.8,11.7C1311.3,1389.5,1305.3,1389.5,1300.4,1386.7z
	 M1045.6,1680.5L1045.6,1680.5l-35.4,20.5L1045.6,1680.5z M924.8,1571.5l85.4,49.3L924.8,1571.5L924.8,1571.5z M1064.6,1589.4
	l-18.8,10.9c-10.1-12.3-24-23.2-43.1-31.6c-26.5-11.7-52.4-7.5-77.8,2.9l85.4,49.3L1064.6,1589.4z M924.8,1571.5l-190.7-110.1
	l167.9,96.9L924.8,1571.5L924.8,1571.5z M1064.6,1589.4l-18.8,10.9l-0.2,80.2l19.6-11.3L1064.6,1589.4z M924.8,1651.7l85.3,49.3
	L924.8,1651.7L924.8,1651.7z M644.3,1489.7l-536.6-309.8l556.4,321.3V1421l-19.8-11.4L644.3,1489.7L644.3,1489.7z M656,1361.7
	c-2.2-78.2-109.9-49.6-177.1-135.3s-4.5-51.1-39.2-212.9c-7.9-36.7-23.5-62.6-43-80.8l-289.3,167l536.8,309.9l0,0
	C651,1396.4,656.6,1381.7,656,1361.7z M664.1,1421l70,40.4L664.1,1421L664.1,1421z"></path>
<path id="color_x5F_1" fill="#0984E3" d="M644.3,1409.6v80.1l-536.6-309.8l-0.2-80.1L644.3,1409.6z M924.8,1571.5v80.2l85.3,49.3
	l35.4-20.5l0.2-80.2l-35.6,20.5L924.8,1571.5z M1336,1375l-19.8,11.7c-4.9,2.8-10.9,2.8-15.8,0l-36.7-10.1
	c-7.2-4.1-9.4-12.5-6.8-19.3l34.7-20c4.9-2.8,10.9-2.8,15.8,0l21.8,18.3C1336.4,1359.7,1338.6,1368.1,1336,1375z M1261.6,1305.2
	l3,7.7l5.5-2.5c0,0,8.5,2.3,24,7.4c1.3,0.4,2.5,0.9,3.4,1.4c3.4-4.6,2.4-11.5-3.1-14.6l-16.8-9.7c-3.1-1.8-6.9-1.8-10,0l-16.8,9.7
	c-1.4,0.8-2.4,1.8-3.2,3C1257.3,1303.1,1261.6,1305.2,1261.6,1305.2z M1211.7,1369.1c-5.6-0.8-9.9-6.4-8.3-12.4l4.8-18.8
	c0.9-3.5,3.6-6.2,7-7.1l18.6-5.2c1.5-0.4,3-0.5,4.4-0.2c-10,3.8-11.5,8.4-11.5,8.4l3.4,7.5l-5.7,2.2c0,0-4.3,7.7-11.4,22.3
	C1212.5,1367,1212.1,1368.1,1211.7,1369.1z M891.9,728.8v-84.9l49.1-28.4V633l-31.1,18v67.6l0,0l0,0l-18,10.4V728.8L891.9,728.8z
	 M982.5,825.1c6.4,5.9,12.3,4,16.2,1.3C993.7,817.3,982.5,825.1,982.5,825.1z M1232,953.2c-3.2-0.7-3.7-5.9-3.7-5.9
	c43.3-46,38.5-58.1,38.5-58.1c0.8,0.3,1.9-1.3,2.8-0.9c23.2,11.6,67.1,58.8,78.3,73.3c2,2.6-2.1,5.5-2.1,5.5
	C1269.6,928.2,1245.6,956,1232,953.2z M1349.6,834.7c-1-1.4-28.6-31.8-44.9-12.9c-16.3,18.8-10.2,35.5-10.2,35.5s21,15.8,48.4-2.3
	C1342.9,855.1,1359.6,849.3,1349.6,834.7z M1355.2,863.3c15,29.2,41.1,25.8,41.1,25.8s13.6-11.5,8.6-35.9s-43.9-11.6-45.5-10.8
	C1343.5,850.1,1355.2,863.3,1355.2,863.3z M1458.3,801.4c-3.8-11.8-13.5-22.3-3.4-41.3s-5.5-52.2-5.5-52.2s-10.9-14.7-29.8-20.2
	c-19-5.5-40.9,17.7-41,32s-4.5,24-15.4,33.9s-10.9,20.8-7.2,34.1c5.7-0.6,12.1-0.5,19,0.7c0,0,9.4-4.6,13-14.1
	c0.1-0.5,0.3-1,0.5-1.5c0.2-0.7,0.4-1.5,0.6-2.3c-4.6-4.6-7.6-10.4-9.2-14.4c-3-7.9,2-23.7,5-32.1c7.3,2.3,26.3,6.4,43-4.5
	c0,0,0.3,19.5,10.8,34.2c-3,5.6-7.2,11.1-13.3,15.8c-4.8,3.7-9.2,6-13.2,7.2c0,0.7,0.1,1.5,0.1,2.3c0,0.4,0.1,0.7,0.1,1.1
	c0.6,6.6,1.8,14.6,4.7,18.7c0,0,31,13.7,32.2,32.2C1449.2,831,1462,813.2,1458.3,801.4z"></path>
</svg>