<?xml version="1.0" standalone="no"?><svg xmlns:xlink="http://www.w3.org/1999/xlink" xmlns="http://www.w3.org/2000/svg" viewBox="0 0 1000 625" preserveAspectRatio="xMaxYMax slice"><g transform="scale(0.8620689655172413)"><rect x="0" y="0" width="1160" height="725" fill="#E5E5E5"/><rect x="72.5" y="0" width="72.5" height="72.5" fill="#E5E5E5"/><path d="M 362.5 0 A 72.5 72.5 0 0 1  435 72.5 L 362.5 0 A 72.5 72.5 0 0 0 435 72.5" fill="#4c566a"/><rect x="580" y="0" width="72.5" height="72.5" fill="#E5E5E5"/><path d="M 616.25 0 A 36.25 36.25 0 0 1  652.5 36.25 L 616.25 0 A 36.25 36.25 0 0 0 652.5 36.25" fill="#cacccf"/><path d="M 580 72.5 A 36.25 36.25 0 0 1  616.25 36.25 L 580 72.5 A 36.25 36.25 0 0 0 616.25 36.25" fill="#e7e0d6"/><path d="M 616.25 72.5 A 36.25 36.25 0 0 1  652.5 36.25 L 616.25 72.5 A 36.25 36.25 0 0 0 652.5 36.25" fill="#666e7f"/><path d="M 725 72.5 A 72.5 72.5 0 0 1  797.5 0 L 725 72.5 A 72.5 72.5 0 0 0 797.5 0" fill="#ebd3ab"/><path d="M 797.5 0 A 72.5 72.5 0 0 1  870 72.5 L 797.5 0 A 72.5 72.5 0 0 0 870 72.5" fill="#4e576c"/><rect x="870" y="0" width="72.5" height="72.5" fill="#E5E5E5"/><path d="M 906.25 36.25 A 36.25 36.25 0 0 1  942.5 0 L 906.25 36.25 A 36.25 36.25 0 0 0 942.5 0" fill="#25314b"/><path d="M 906.25 72.5 A 36.25 36.25 0 0 1  942.5 36.25 L 906.25 72.5 A 36.25 36.25 0 0 0 942.5 36.25" fill="#faa820"/><path d="M 1015 0 A 72.5 72.5 0 0 1  1087.5 72.5 L 1015 0 A 72.5 72.5 0 0 0 1087.5 72.5" fill="#e6e2da"/><rect x="1087.5" y="0" width="72.5" height="72.5" fill="#E5E5E5"/><path d="M 1123.75 72.5 A 36.25 36.25 0 0 1  1160 36.25 L 1123.75 72.5 A 36.25 36.25 0 0 0 1160 36.25" fill="#f5b64e"/><path d="M 145 72.5 A 72.5 72.5 0 0 1  217.5 145 L 145 72.5 A 72.5 72.5 0 0 0 217.5 145" fill="#f0c47b"/><path d="M 1015 145 A 72.5 72.5 0 0 1  1087.5 72.5 L 1015 145 A 72.5 72.5 0 0 0 1087.5 72.5" fill="#f8ae36"/><rect x="72.5" y="145" width="72.5" height="72.5" fill="#E5E5E5"/><path d="M 580 217.5 A 72.5 72.5 0 0 1  652.5 145 L 580 217.5 A 72.5 72.5 0 0 0 652.5 145" fill="#535c70"/><path d="M 725 217.5 A 72.5 72.5 0 0 1  797.5 145 L 725 217.5 A 72.5 72.5 0 0 0 797.5 145" fill="#e6e1d8"/><rect x="1015" y="145" width="72.5" height="72.5" fill="#E5E5E5"/><path d="M 1015 145 A 36.25 36.25 0 0 1  1051.25 181.25 L 1015 145 A 36.25 36.25 0 0 0 1051.25 181.25" fill="#f3bd64"/><path d="M 1051.25 217.5 A 36.25 36.25 0 0 1  1087.5 181.25 L 1051.25 217.5 A 36.25 36.25 0 0 0 1087.5 181.25" fill="#a4a8b1"/><path d="M 362.5 290 A 72.5 72.5 0 0 1  435 217.5 L 362.5 290 A 72.5 72.5 0 0 0 435 217.5" fill="#6a7282"/><rect x="435" y="217.5" width="72.5" height="72.5" fill="#E5E5E5"/><path d="M 507.5 217.5 A 72.5 72.5 0 0 1  580 290 L 507.5 217.5 A 72.5 72.5 0 0 0 580 290" fill="#f8af36"/><rect x="652.5" y="217.5" width="72.5" height="72.5" fill="#E5E5E5"/><path d="M 652.5 217.5 A 36.25 36.25 0 0 1  688.75 253.75 L 652.5 217.5 A 36.25 36.25 0 0 0 688.75 253.75" fill="#ecd2a8"/><rect x="797.5" y="217.5" width="72.5" height="72.5" fill="#E5E5E5"/><path d="M 833.75 253.75 A 36.25 36.25 0 0 1  870 290 L 833.75 253.75 A 36.25 36.25 0 0 0 870 290" fill="#e7e0d4"/><path d="M 0 362.5 A 72.5 72.5 0 0 1  72.5 290 L 0 362.5 A 72.5 72.5 0 0 0 72.5 290" fill="#9499a4"/><rect x="145" y="290" width="72.5" height="72.5" fill="#E5E5E5"/><path d="M 217.5 290 A 72.5 72.5 0 0 1  290 362.5 L 217.5 290 A 72.5 72.5 0 0 0 290 362.5" fill="#ead6b4"/><path d="M 580 290 A 72.5 72.5 0 0 1  652.5 362.5 L 580 290 A 72.5 72.5 0 0 0 652.5 362.5" fill="#29344e"/><path d="M 797.5 362.5 A 72.5 72.5 0 0 1  870 290 L 797.5 362.5 A 72.5 72.5 0 0 0 870 290" fill="#fca414"/><path d="M 942.5 290 A 72.5 72.5 0 0 1  1015 362.5 L 942.5 290 A 72.5 72.5 0 0 0 1015 362.5" fill="#cfd0d3"/><path d="M 72.5 435 A 72.5 72.5 0 0 1  145 362.5 L 72.5 435 A 72.5 72.5 0 0 0 145 362.5" fill="#edce9a"/><path d="M 145 362.5 A 72.5 72.5 0 0 1  217.5 435 L 145 362.5 A 72.5 72.5 0 0 0 217.5 435" fill="#444e63"/><rect x="290" y="362.5" width="72.5" height="72.5" fill="#E5E5E5"/><path d="M 290 362.5 A 36.25 36.25 0 0 1  326.25 398.75 L 290 362.5 A 36.25 36.25 0 0 0 326.25 398.75" fill="#f3bc61"/><path d="M 290 435 A 36.25 36.25 0 0 1  326.25 398.75 L 290 435 A 36.25 36.25 0 0 0 326.25 398.75" fill="#f0c682"/><path d="M 326.25 398.75 A 36.25 36.25 0 0 1  362.5 435 L 326.25 398.75 A 36.25 36.25 0 0 0 362.5 435" fill="#9fa4ad"/><rect x="435" y="362.5" width="72.5" height="72.5" fill="#E5E5E5"/><path d="M 435 435 A 36.25 36.25 0 0 1  471.25 398.75 L 435 435 A 36.25 36.25 0 0 0 471.25 398.75" fill="#f6b447"/><path d="M 471.25 398.75 A 36.25 36.25 0 0 1  507.5 435 L 471.25 398.75 A 36.25 36.25 0 0 0 507.5 435" fill="#79808e"/><path d="M 652.5 435 A 72.5 72.5 0 0 1  725 362.5 L 652.5 435 A 72.5 72.5 0 0 0 725 362.5" fill="#16233f"/><rect x="942.5" y="362.5" width="72.5" height="72.5" fill="#E5E5E5"/><path d="M 978.75 362.5 A 36.25 36.25 0 0 1  1015 398.75 L 978.75 362.5 A 36.25 36.25 0 0 0 1015 398.75" fill="#eecb91"/><path d="M 942.5 398.75 A 36.25 36.25 0 0 1  978.75 435 L 942.5 398.75 A 36.25 36.25 0 0 0 978.75 435" fill="#b0b3ba"/><path d="M 978.75 398.75 A 36.25 36.25 0 0 1  1015 435 L 978.75 398.75 A 36.25 36.25 0 0 0 1015 435" fill="#f1c377"/><path d="M 145 507.5 A 72.5 72.5 0 0 1  217.5 435 L 145 507.5 A 72.5 72.5 0 0 0 217.5 435" fill="#5d6678"/><rect x="217.5" y="435" width="72.5" height="72.5" fill="#E5E5E5"/><path d="M 217.5 435 A 36.25 36.25 0 0 1  253.75 471.25 L 217.5 435 A 36.25 36.25 0 0 0 253.75 471.25" fill="#f2c06f"/><path d="M 290 507.5 A 72.5 72.5 0 0 1  362.5 435 L 290 507.5 A 72.5 72.5 0 0 0 362.5 435" fill="#3e485e"/><rect x="362.5" y="435" width="72.5" height="72.5" fill="#E5E5E5"/><path d="M 362.5 507.5 A 36.25 36.25 0 0 1  398.75 471.25 L 362.5 507.5 A 36.25 36.25 0 0 0 398.75 471.25" fill="#e7dfd3"/><rect x="435" y="435" width="72.5" height="72.5" fill="#E5E5E5"/><path d="M 471.25 471.25 A 36.25 36.25 0 0 1  507.5 435 L 471.25 471.25 A 36.25 36.25 0 0 0 507.5 435" fill="#838996"/><path d="M 507.5 507.5 A 72.5 72.5 0 0 1  580 435 L 507.5 507.5 A 72.5 72.5 0 0 0 580 435" fill="#f6b54c"/><rect x="725" y="435" width="72.5" height="72.5" fill="#E5E5E5"/><path d="M 725 471.25 A 36.25 36.25 0 0 1  761.25 435 L 725 471.25 A 36.25 36.25 0 0 0 761.25 435" fill="#9a9fa9"/><path d="M 725 471.25 A 36.25 36.25 0 0 1  761.25 507.5 L 725 471.25 A 36.25 36.25 0 0 0 761.25 507.5" fill="#ead8bb"/><rect x="870" y="435" width="72.5" height="72.5" fill="#E5E5E5"/><path d="M 942.5 507.5 A 72.5 72.5 0 0 1  1015 435 L 942.5 507.5 A 72.5 72.5 0 0 0 1015 435" fill="#edcd98"/><path d="M 0 507.5 A 72.5 72.5 0 0 1  72.5 580 L 0 507.5 A 72.5 72.5 0 0 0 72.5 580" fill="#1a2742"/><rect x="217.5" y="507.5" width="72.5" height="72.5" fill="#E5E5E5"/><path d="M 362.5 507.5 A 72.5 72.5 0 0 1  435 580 L 362.5 507.5 A 72.5 72.5 0 0 0 435 580" fill="#dadbdc"/><path d="M 725 507.5 A 72.5 72.5 0 0 1  797.5 580 L 725 507.5 A 72.5 72.5 0 0 0 797.5 580" fill="#7e8492"/><path d="M 1015 580 A 72.5 72.5 0 0 1  1087.5 507.5 L 1015 580 A 72.5 72.5 0 0 0 1087.5 507.5" fill="#faa822"/><path d="M 1087.5 580 A 72.5 72.5 0 0 1  1160 507.5 L 1087.5 580 A 72.5 72.5 0 0 0 1160 507.5" fill="#ead6b5"/><rect x="145" y="580" width="72.5" height="72.5" fill="#E5E5E5"/><path d="M 435 652.5 A 72.5 72.5 0 0 1  507.5 580 L 435 652.5 A 72.5 72.5 0 0 0 507.5 580" fill="#bfc1c6"/><rect x="797.5" y="580" width="72.5" height="72.5" fill="#E5E5E5"/><path d="M 833.75 652.5 A 36.25 36.25 0 0 1  870 616.25 L 833.75 652.5 A 36.25 36.25 0 0 0 870 616.25" fill="#f3bc62"/><rect x="1015" y="580" width="72.5" height="72.5" fill="#E5E5E5"/><rect x="1087.5" y="580" width="72.5" height="72.5" fill="#E5E5E5"/><path d="M 1087.5 616.25 A 36.25 36.25 0 0 1  1123.75 580 L 1087.5 616.25 A 36.25 36.25 0 0 0 1123.75 580" fill="#f7b240"/><path d="M 1123.75 616.25 A 36.25 36.25 0 0 1  1160 652.5 L 1123.75 616.25 A 36.25 36.25 0 0 0 1160 652.5" fill="#f2bf6c"/><path d="M 145 725 A 72.5 72.5 0 0 1  217.5 652.5 L 145 725 A 72.5 72.5 0 0 0 217.5 652.5" fill="#e7decf"/><path d="M 507.5 725 A 72.5 72.5 0 0 1  580 652.5 L 507.5 725 A 72.5 72.5 0 0 0 580 652.5" fill="#1c2944"/><path d="M 725 725 A 72.5 72.5 0 0 1  797.5 652.5 L 725 725 A 72.5 72.5 0 0 0 797.5 652.5" fill="#e9d9bd"/><rect x="1015" y="652.5" width="72.5" height="72.5" fill="#E5E5E5"/><path d="M 1015 688.75 A 36.25 36.25 0 0 1  1051.25 652.5 L 1015 688.75 A 36.25 36.25 0 0 0 1051.25 652.5" fill="#f3bd65"/><path d="M 1051.25 688.75 A 36.25 36.25 0 0 1  1087.5 652.5 L 1051.25 688.75 A 36.25 36.25 0 0 0 1087.5 652.5" fill="#ecd1a6"/></g></svg>